<?xml version="1.0" standalone="no"?>
<!DOCTYPE svg PUBLIC "-//W3C//DTD SVG 20010904//EN"
 "http://www.w3.org/TR/2001/REC-SVG-20010904/DTD/svg10.dtd">
<svg version="1.0" xmlns="http://www.w3.org/2000/svg"
 width="1280.000000pt" height="960.000000pt" viewBox="0 0 1280.000000 960.000000"
 preserveAspectRatio="xMidYMid meet">
<metadata>
Created by potrace 1.15, written by Peter Selinger 2001-2017
</metadata>
<g transform="translate(0.000000,960.000000) scale(0.100000,-0.100000)"
fill="#000000" stroke="none">
<path d="M0 4800 l0 -4800 2210 0 2210 0 -9 23 c-4 12 -11 43 -15 69 -4 27
-17 60 -30 75 -20 24 -25 48 -35 148 -6 66 -16 146 -20 177 -5 32 -9 146 -8
255 0 137 -4 210 -13 237 -31 94 8 399 74 593 19 55 37 128 41 164 3 36 18 93
34 129 16 36 36 82 45 103 8 20 20 37 25 37 5 0 28 -35 51 -77 52 -96 87 -143
105 -143 9 0 16 18 20 55 7 49 5 57 -19 85 -30 36 -33 50 -11 50 24 0 18 17
-20 59 -19 21 -35 44 -35 51 0 14 -32 55 -91 117 -22 24 -38 47 -35 52 3 5 -4
11 -16 14 -21 6 -21 7 -5 25 16 17 15 20 -13 41 -17 12 -28 26 -25 31 7 12
-23 40 -43 40 -20 0 -72 87 -88 148 -8 33 -25 55 -68 94 -55 49 -57 52 -51 88
4 21 2 46 -4 56 -5 11 -13 32 -16 48 -3 16 -19 41 -35 56 -26 24 -28 29 -15
40 8 7 15 29 15 49 0 49 11 63 54 67 l37 3 -7 -34 c-6 -36 3 -44 24 -23 19 19
14 -2 -8 -29 -25 -32 -26 -46 -2 -39 25 8 58 -40 41 -60 -6 -8 -9 -18 -5 -21
4 -4 18 7 32 24 14 18 31 30 38 27 8 -3 17 -1 21 5 3 6 11 11 17 11 5 0 -12
-19 -38 -43 -29 -27 -45 -48 -40 -55 5 -8 13 -9 26 -2 15 8 18 5 22 -20 2 -16
0 -36 -4 -44 -5 -10 -5 -16 0 -16 6 0 12 7 16 15 3 8 15 15 26 15 11 0 20 5
20 11 0 6 14 27 30 46 31 35 38 36 19 2 -6 -11 -8 -25 -6 -32 2 -7 11 3 21 21
30 59 45 34 19 -34 -5 -13 -3 -16 10 -11 8 3 18 3 20 -1 2 -4 2 -2 1 5 -2 6 3
16 10 22 11 9 12 5 9 -16 -3 -26 -3 -26 9 -9 16 23 77 86 84 86 2 0 0 -9 -6
-19 -5 -11 -10 -26 -9 -33 0 -7 5 -3 11 10 19 39 29 24 27 -46 -2 -85 10 -183
22 -176 5 3 9 16 9 30 0 14 4 22 10 19 6 -3 10 -20 10 -38 0 -30 0 -31 16 -11
17 20 17 20 43 -3 23 -22 26 -23 31 -7 5 13 9 14 14 5 5 -7 15 -10 23 -7 9 4
22 1 29 -5 11 -9 14 -8 14 1 0 10 3 10 15 0 9 -7 17 -11 18 -9 1 2 9 16 17 31
13 28 34 36 44 19 3 -5 15 -7 26 -4 22 6 37 44 24 64 -4 8 -3 9 4 5 7 -4 12
-13 12 -20 0 -7 9 -21 20 -31 15 -13 23 -15 33 -7 10 9 16 9 25 0 8 -8 15 -8
27 2 8 7 15 9 15 4 0 -5 7 -1 14 9 12 15 15 15 26 2 7 -9 29 -15 52 -15 38 0
40 2 34 24 -3 14 -2 28 4 31 17 11 11 25 -22 56 -36 32 -48 36 -48 15 0 -21
-23 -25 -42 -8 -17 14 -18 13 -18 -9 -1 -23 -2 -23 -32 11 -18 21 -32 30 -35
23 -2 -7 -11 -9 -19 -6 -8 3 -21 -1 -30 -8 -13 -10 -17 -10 -26 2 -7 10 -8 3
-4 -23 2 -21 3 -38 2 -38 -2 0 -16 18 -31 40 -31 45 -41 49 -50 21 -4 -13 -12
-18 -22 -14 -10 4 -14 2 -10 -4 4 -6 3 -22 -2 -35 -9 -21 -10 -20 -10 13 -1
20 -8 42 -16 49 -8 7 -15 21 -15 32 0 14 5 18 15 14 8 -3 15 -1 15 5 0 6 4 8
9 5 5 -4 7 4 3 16 -5 20 -3 20 31 -6 l36 -27 7 36 6 36 20 -20 c10 -12 22 -21
26 -22 52 -6 52 -6 52 23 0 35 13 36 34 3 15 -23 55 -38 41 -15 -3 6 -2 10 4
10 6 0 17 -12 25 -27 15 -27 15 -27 16 -5 0 12 -7 34 -16 47 -20 31 -8 33 17
3 18 -20 20 -20 38 -4 11 10 25 15 30 11 6 -3 11 -1 11 6 0 8 7 5 20 -6 15
-13 23 -15 33 -7 10 9 17 8 25 0 16 -16 16 5 1 35 l-12 22 24 -22 c21 -19 26
-20 43 -7 14 10 23 11 33 3 10 -9 13 -8 13 5 0 15 20 24 20 9 0 -5 4 -14 9
-22 7 -11 13 -9 30 8 17 17 19 25 11 41 -8 14 -8 20 1 20 6 0 16 -14 22 -30 7
-18 17 -28 24 -26 9 4 13 -5 13 -25 0 -17 5 -39 11 -50 5 -11 9 -36 7 -56 -3
-35 -4 -36 -20 -20 -9 9 -19 17 -22 17 -9 0 5 -52 17 -67 14 -19 48 -17 41 2
-4 8 -1 15 5 15 7 0 14 -7 17 -15 8 -19 34 -19 34 0 0 20 7 19 37 -5 14 -11
29 -17 34 -14 5 3 9 -2 9 -11 0 -21 45 -65 66 -65 15 0 13 5 -9 28 -32 33 -34
53 -9 75 23 21 46 22 62 2 13 -15 60 -21 60 -7 0 4 -13 13 -30 19 -40 15 -38
25 10 45 l39 16 78 -39 c42 -21 86 -47 97 -58 22 -22 15 -57 -10 -47 -9 3 -12
2 -9 -5 4 -6 -3 -13 -15 -16 -18 -5 -20 -10 -14 -36 5 -25 4 -29 -10 -24 -10
4 -16 1 -16 -8 0 -11 -7 -12 -31 -5 -27 8 -32 6 -37 -12 -4 -18 -11 -20 -53
-16 -29 3 -49 1 -49 -5 0 -5 -15 -7 -34 -4 -22 4 -36 1 -39 -6 -3 -9 -7 -9
-19 0 -12 11 -17 8 -28 -12 -14 -26 -30 -33 -30 -14 0 8 -4 8 -13 0 -11 -8
-17 -5 -27 15 -11 19 -19 24 -36 20 -16 -4 -24 -1 -28 12 -7 19 -71 28 -82 11
-10 -16 -24 -10 -24 11 0 28 -14 25 -30 -8 -13 -26 -14 -26 -18 -5 -4 25 -18
31 -25 11 -3 -9 -10 -8 -26 6 -21 19 -22 19 -37 -3 -13 -17 -19 -20 -30 -10
-12 9 -14 5 -14 -29 0 -22 -3 -54 -6 -71 -6 -26 -4 -30 10 -25 11 4 21 -3 33
-25 12 -20 26 -31 41 -31 15 0 22 -6 22 -19 0 -10 7 -21 15 -25 9 -3 15 -19
15 -41 0 -40 14 -45 32 -13 l12 23 6 -25 c4 -16 12 -24 23 -22 11 2 24 -12 39
-43 26 -54 38 -57 38 -11 0 46 16 54 35 16 18 -35 31 -38 38 -10 9 34 25 23
57 -38 17 -31 44 -79 60 -107 17 -27 37 -64 44 -80 8 -17 24 -39 36 -50 54
-49 94 -183 88 -291 -6 -91 -49 -167 -158 -279 -47 -49 -89 -103 -107 -140
-27 -55 -33 -82 -59 -267 -4 -25 -15 -45 -32 -59 -26 -20 -26 -21 -8 -35 27
-19 56 -17 91 6 17 11 44 20 62 20 27 0 45 12 103 71 64 65 72 70 97 62 20 -7
29 -17 31 -36 3 -23 9 -28 44 -33 l40 -7 -8 -41 c-4 -23 -7 -58 -7 -78 1 -26
-3 -38 -13 -38 -17 0 -19 -27 -1 -33 9 -3 7 -15 -9 -48 -12 -24 -27 -69 -34
-99 -9 -34 -23 -63 -38 -75 -29 -25 -42 -80 -28 -119 8 -22 8 -30 -1 -33 -19
-7 -16 -60 4 -72 15 -8 15 -11 3 -27 -14 -16 -13 -17 15 -10 17 4 47 10 67 13
34 4 39 2 48 -21 11 -30 19 -32 46 -11 24 18 74 19 97 2 10 -6 20 -30 24 -52
5 -36 51 -95 74 -95 4 0 10 -22 14 -50 l7 -50 41 0 c32 0 38 3 29 12 -14 14
23 29 128 54 127 30 138 34 143 54 4 14 14 20 34 20 69 0 196 65 222 114 7 13
36 33 65 45 49 20 55 20 95 6 60 -21 65 -20 108 20 47 43 79 50 199 41 80 -5
94 -4 94 8 0 22 -97 90 -155 110 -27 9 -70 30 -94 46 -48 33 -57 35 -66 20 -3
-6 -52 -10 -110 -10 -57 0 -106 -4 -110 -10 -3 -5 0 -18 7 -29 22 -36 0 -34
-32 2 -33 39 -68 56 -79 39 -4 -7 -27 3 -61 24 -66 42 -75 42 -55 4 19 -37 19
-35 -7 -37 -13 -1 -34 8 -48 21 -35 31 -81 59 -87 52 -3 -3 2 -17 11 -30 70
-107 -125 61 -224 192 -38 52 -65 116 -54 134 8 12 48 10 63 -4 10 -11 12 -8
9 12 -2 17 -9 25 -22 25 -15 0 -23 14 -37 60 -34 114 -88 257 -103 274 -8 9
-20 39 -26 66 -14 67 -51 130 -75 130 -29 0 -44 104 -40 272 4 161 19 227 76
322 21 35 41 80 45 100 3 20 18 61 32 91 14 30 25 62 24 70 0 8 2 22 4 30 4
11 7 12 13 1 5 -8 22 16 49 73 45 93 58 131 53 160 -2 15 2 17 22 12 32 -8 75
25 79 62 2 19 8 26 20 24 12 -2 20 6 24 23 4 16 13 25 26 25 13 0 25 14 39 44
24 56 18 77 -22 69 -26 -5 -29 -3 -29 20 0 14 -12 39 -26 56 -36 43 -29 67 18
64 32 -2 37 1 36 20 -1 12 -8 30 -17 40 -14 17 -13 23 9 65 24 45 26 47 65 44
l40 -4 -24 26 -24 25 39 40 c22 21 38 44 36 49 -5 17 25 68 55 93 16 14 27 32
25 41 -2 11 6 22 22 29 14 7 23 16 20 20 -3 5 2 9 10 9 20 0 48 30 42 45 -2 7
8 19 22 26 15 7 29 14 31 16 2 1 -6 14 -18 29 l-22 28 33 11 c30 10 33 14 31
47 -2 28 2 38 15 42 13 5 18 18 20 53 1 25 8 56 17 69 10 16 13 37 9 71 -5 46
-5 47 11 28 16 -19 17 -15 10 74 -6 86 -5 94 9 82 24 -20 49 -6 42 23 -4 18
-2 25 10 28 13 2 9 13 -20 57 -20 29 -36 56 -36 60 0 3 5 -1 11 -9 9 -12 12
-12 16 -2 3 9 14 -1 30 -28 14 -23 27 -39 30 -36 12 11 -8 56 -37 83 -16 15
-30 37 -30 49 0 46 -69 148 -94 138 -6 -2 -19 9 -28 26 -9 16 -30 35 -45 42
-15 6 -35 20 -44 31 -12 15 -34 20 -112 24 -60 4 -97 2 -97 -4 0 -5 12 -20 26
-34 14 -13 30 -33 36 -44 6 -11 -12 1 -39 28 -49 47 -85 67 -45 24 12 -13 19
-27 15 -31 -4 -4 -3 -10 2 -14 19 -14 34 -50 28 -71 -4 -16 8 -34 52 -76 67
-64 63 -73 -6 -15 -52 44 -61 47 -78 26 -9 -11 -5 -19 21 -41 30 -25 31 -26 8
-20 -14 4 -38 9 -55 12 -26 5 -28 4 -17 -10 7 -8 37 -28 65 -42 71 -37 77 -45
36 -46 -18 -1 -45 -4 -59 -8 l-25 -7 23 -8 c12 -4 22 -11 22 -16 0 -17 -17
-19 -44 -4 -34 17 -36 17 -36 2 0 -7 14 -21 30 -30 40 -23 38 -32 -11 -47 -45
-14 -91 -7 -110 15 -10 12 -6 14 25 14 43 0 46 11 10 39 -41 32 -86 25 -89
-14 -1 -5 -5 -18 -9 -28 -11 -23 30 -70 42 -50 6 9 16 6 40 -9 17 -11 32 -24
32 -29 0 -13 -46 -22 -74 -15 -17 4 -28 1 -33 -9 -8 -13 -15 -13 -43 -4 -19 7
-40 16 -47 21 -15 12 -33 2 -33 -17 0 -17 30 -35 58 -35 11 0 25 -7 32 -15 11
-13 7 -15 -24 -15 -20 0 -36 4 -36 8 0 8 -14 16 -63 40 -4 2 -4 -3 -1 -12 7
-18 -21 -23 -31 -6 -3 6 -13 10 -22 10 -15 0 -14 -2 0 -18 22 -24 21 -35 -1
-23 -11 6 -36 16 -58 24 -21 8 -48 18 -59 22 -12 5 -7 -4 15 -24 32 -30 33
-31 10 -26 l-25 6 28 -25 c15 -14 35 -26 43 -26 8 0 19 -11 24 -25 5 -14 16
-25 25 -25 20 0 19 19 -2 42 -9 10 -11 18 -5 18 6 0 19 -12 30 -27 35 -51 35
-53 4 -53 -20 0 -46 13 -78 40 -27 22 -62 45 -79 49 -16 5 -24 10 -17 10 20 1
4 21 -17 21 -10 0 -24 7 -31 15 -7 8 -17 15 -23 15 -6 0 3 -15 21 -33 37 -38
41 -51 12 -42 -12 4 -20 2 -20 -6 0 -7 -8 -6 -22 5 -13 9 -45 27 -71 41 -26
14 -45 30 -42 35 3 5 0 12 -6 16 -8 4 -9 3 -5 -4 5 -8 -8 -11 -42 -8 -45 2
-49 1 -44 -17 6 -23 8 -24 -87 41 -44 30 -66 40 -71 32 -5 -8 -18 3 -38 31
-17 24 -49 62 -71 84 -35 33 -43 37 -52 25 -8 -13 -13 -11 -27 10 -9 13 -25
31 -35 40 -10 8 -35 31 -56 51 -20 19 -44 38 -54 42 -9 3 -17 11 -17 17 0 5
-5 10 -11 10 -8 0 -9 -11 -5 -31 5 -27 4 -30 -9 -19 -8 6 -22 9 -32 6 -14 -4
-23 6 -40 43 -13 26 -23 54 -23 61 0 6 -6 10 -14 7 -9 -4 -24 9 -41 35 -15 22
-29 38 -31 35 -3 -3 4 -32 16 -66 23 -70 26 -97 5 -61 -8 14 -14 19 -15 13 0
-22 -20 -14 -20 8 0 11 -5 30 -12 42 -12 22 -16 46 -21 107 -2 19 -13 57 -25
84 -28 62 -28 68 3 31 17 -21 23 -24 18 -10 -6 17 -5 18 10 7 8 -8 17 -23 19
-34 2 -12 9 -23 16 -26 11 -3 11 0 3 17 -6 12 -16 30 -22 42 -13 26 -5 36 16
19 12 -10 15 -10 16 1 1 8 3 29 5 47 3 28 -1 35 -29 52 -21 13 -26 20 -14 20
9 0 17 6 17 13 0 8 3 9 8 1 8 -13 42 -15 42 -2 0 4 -4 8 -8 8 -8 0 -32 43 -32
55 0 3 7 5 15 5 20 0 19 14 -1 31 -12 10 -15 23 -10 54 3 22 8 60 11 84 2 24
9 47 14 51 13 7 -7 71 -27 83 -20 13 -14 30 8 24 18 -4 20 -2 14 16 -3 12 -10
26 -15 32 -13 14 -11 25 5 25 8 0 17 14 21 30 6 26 9 29 22 19 12 -11 13 -9 9
12 -8 31 15 74 37 73 9 -1 17 2 17 7 0 5 -4 9 -10 9 -16 0 2 31 23 39 27 10
51 80 34 101 -7 8 -13 33 -12 55 0 38 2 40 33 43 38 4 41 14 7 32 -13 7 -22
17 -19 21 2 4 0 10 -6 14 -6 4 -8 11 -5 16 10 16 -5 48 -26 54 -26 9 -55 65
-38 75 8 6 3 13 -18 24 -17 8 -33 22 -36 30 -3 8 -22 18 -41 21 -19 4 -53 23
-75 42 -23 19 -46 31 -52 28 -5 -4 -18 -1 -27 7 -37 31 -127 47 -199 36 -40
-7 -68 -27 -54 -41 12 -12 44 -1 36 13 -3 5 -2 10 2 10 5 0 14 -9 21 -21 11
-17 21 -20 52 -17 33 3 40 0 45 -19 4 -18 10 -21 39 -16 19 3 36 1 40 -6 4 -6
18 -11 31 -11 15 0 31 -10 41 -25 9 -14 37 -34 61 -45 39 -17 44 -22 33 -35
-10 -13 -10 -19 4 -33 9 -10 16 -34 16 -52 0 -32 0 -33 -20 -15 -17 16 -20 16
-20 2 0 -8 12 -24 27 -35 23 -17 27 -28 31 -84 4 -64 4 -64 -39 -111 -35 -38
-53 -49 -89 -55 -38 -7 -45 -11 -42 -29 4 -31 -26 -38 -34 -7 -5 19 -11 23
-26 18 -13 -4 -24 1 -34 13 -12 15 -15 16 -23 3 -16 -24 -21 -6 -9 34 7 23 21
42 35 49 13 6 23 18 23 28 0 10 7 22 16 27 14 8 14 10 0 21 -9 8 -16 22 -16
33 0 11 -5 18 -12 16 -20 -7 -44 25 -39 51 3 17 0 22 -8 17 -7 -4 -18 -2 -26
4 -12 10 -15 9 -15 -3 0 -11 -9 -13 -43 -10 -44 5 -107 -17 -107 -37 0 -6 -7
-10 -15 -10 -17 0 -60 -25 -86 -50 -9 -9 -16 -35 -17 -65 -1 -31 -7 -54 -17
-61 -8 -6 -15 -19 -15 -28 0 -19 -4 -20 -31 -6 -15 8 -19 7 -19 -5 0 -8 5 -15
10 -15 6 0 10 -7 10 -15 0 -22 -27 -19 -40 4 -13 25 -13 77 1 102 7 15 16 18
32 13 20 -6 20 -5 -6 29 -15 20 -27 40 -27 45 0 5 -10 13 -23 19 -17 8 -28 7
-42 -4 -12 -8 -16 -17 -10 -21 6 -4 10 -19 10 -34 -1 -16 2 -28 6 -28 15 0 21
-62 8 -71 -11 -8 -11 -11 4 -20 16 -9 14 -13 -18 -35 -20 -13 -38 -24 -40 -24
-12 0 -3 24 13 37 15 13 15 14 0 10 -9 -3 -24 1 -35 8 -17 14 -17 14 4 15 16
0 20 5 16 20 -3 11 -13 20 -22 20 -11 0 -5 10 19 30 33 29 33 30 9 25 -21 -5
-33 2 -71 43 -25 26 -55 69 -66 95 l-20 46 -61 -2 c-41 -1 -61 -6 -61 -14 0
-7 -4 -13 -10 -13 -5 0 -10 -9 -10 -20 0 -11 -7 -20 -16 -20 -8 0 -24 -4 -34
-10 -16 -9 -17 -14 -7 -46 6 -21 19 -39 29 -42 14 -3 18 -14 18 -44 0 -35 2
-40 20 -35 21 5 29 -16 10 -28 -6 -3 -10 -17 -10 -31 0 -29 -6 -30 -45 -4 -16
11 -38 20 -47 20 -24 0 -78 49 -78 71 0 10 -5 19 -10 19 -15 0 -2 -98 19 -140
10 -19 21 -47 24 -62 4 -15 15 -34 24 -44 10 -9 18 -23 19 -32 2 -8 13 -26 26
-41 38 -42 68 -89 68 -105 0 -8 4 -17 9 -20 10 -6 3 -44 -10 -62 -5 -6 -1 -35
7 -67 20 -69 14 -97 -27 -120 -42 -23 -31 -32 16 -13 21 9 39 16 41 16 9 0
-36 -63 -55 -76 -31 -22 -26 -34 11 -23 41 11 48 11 48 -1 0 -5 -6 -10 -13
-10 -8 0 -23 -10 -35 -23 -25 -26 -30 -46 -7 -27 8 6 22 10 32 7 15 -3 13 -6
-9 -15 -28 -12 -40 -29 -13 -19 23 9 29 -13 9 -29 -18 -14 -18 -15 5 -8 34 9
19 -10 -29 -37 -25 -14 -36 -25 -29 -30 14 -8 75 26 88 49 5 9 13 14 17 10 6
-7 -24 -37 -93 -98 -31 -26 -29 -40 5 -31 15 4 26 12 25 17 -2 9 26 29 32 22
2 -1 -6 -30 -17 -63 -23 -68 -54 -108 -67 -87 -6 10 -11 8 -23 -5 -26 -31 -31
-43 -12 -36 14 5 15 3 4 -18 -7 -13 -23 -36 -37 -50 -21 -23 -22 -27 -8 -33
22 -8 35 1 35 23 0 9 7 26 15 37 14 18 14 18 15 -5 0 -24 -12 -68 -32 -121 -7
-17 -6 -26 1 -28 17 -6 13 -35 -12 -84 -22 -43 -22 -53 1 -88 2 -3 10 4 18 14
12 18 14 18 14 3 0 -10 -7 -20 -15 -23 -20 -8 -19 -20 2 -28 10 -4 26 2 42 18
28 26 33 27 261 45 165 13 185 8 158 -42 -30 -58 -88 -112 -172 -162 -134 -80
-144 -87 -189 -147 -23 -30 -66 -86 -95 -124 -29 -38 -86 -98 -125 -135 -69
-64 -119 -129 -98 -129 5 0 21 14 35 32 13 18 42 42 63 53 22 12 44 35 52 53
9 20 20 31 28 28 7 -3 28 8 47 24 26 23 43 30 75 30 22 0 41 -4 41 -10 0 -5
-15 -26 -32 -46 -30 -34 -31 -36 -9 -29 20 6 22 5 16 -15 -7 -21 -5 -23 26
-16 18 3 45 17 59 30 17 17 40 25 73 28 74 5 59 -17 -33 -48 -30 -11 -77 -31
-103 -47 -26 -15 -58 -27 -71 -27 -13 0 -31 -10 -42 -21 l-19 -21 33 7 c31 6
32 6 22 -19 -10 -28 0 -35 19 -12 7 8 26 17 44 20 19 4 48 21 67 41 35 36 70
46 70 21 0 -8 -7 -16 -15 -20 -8 -3 -15 -12 -15 -21 0 -9 -19 -24 -42 -35 -24
-11 -39 -20 -33 -20 19 0 -98 -108 -137 -126 -26 -12 -44 -28 -53 -50 -14 -34
-102 -106 -121 -100 -6 2 -15 -4 -21 -14 -7 -11 -30 -20 -62 -24 -39 -5 -55
-13 -68 -32 -22 -34 -53 -131 -53 -166 0 -16 -6 -31 -15 -34 -9 -4 -15 -19
-15 -36 0 -69 -128 -199 -181 -183 -24 8 -89 133 -89 173 0 20 17 49 59 98 92
110 263 402 296 507 18 58 42 108 70 145 48 66 90 137 100 170 5 17 2 22 -12
22 -45 1 -47 13 -19 105 15 47 24 94 21 104 -10 33 12 71 45 77 16 4 30 12 31
18 0 6 4 1 9 -11 9 -22 40 -33 40 -13 0 23 -25 60 -37 56 -17 -7 -33 26 -26
54 4 17 2 21 -8 18 -13 -4 -20 -23 -34 -90 l-5 -28 -35 17 c-19 9 -37 25 -41
35 -6 20 11 114 31 168 37 100 44 163 15 145 -13 -8 -13 -5 1 34 6 17 8 44 4
59 l-7 27 -55 -60 c-55 -60 -55 -60 -22 -12 64 92 66 97 48 110 -9 7 -19 24
-22 38 -4 15 -15 37 -25 50 l-19 23 -42 -35 c-39 -32 -56 -60 -130 -219 -6
-14 -9 -16 -6 -5 4 11 13 44 21 74 13 52 45 106 127 218 37 50 38 53 24 81 -7
16 -12 42 -10 58 2 16 0 35 -5 42 -17 26 -73 -17 -227 -172 -82 -83 -134 -131
-115 -107 46 59 188 203 275 279 53 46 67 63 59 72 -9 9 -18 9 -35 0 -23 -11
-23 -11 -4 5 48 37 55 46 55 67 0 34 -14 50 -36 42 -16 -5 -15 -3 4 13 22 18
23 25 23 151 -1 73 -5 141 -10 151 -6 9 -13 42 -16 72 -4 30 -11 65 -16 79 -5
14 -11 54 -13 90 -8 121 -39 64 -60 -112 -4 -32 -11 -60 -16 -63 -5 -3 -23 7
-40 22 -37 33 -49 80 -50 195 0 42 -3 84 -6 92 -6 15 -8 15 -20 -1 -12 -16
-14 -14 -15 22 -1 51 -13 93 -22 79 -3 -6 -9 -66 -13 -133 -4 -67 -11 -124
-16 -127 -4 -3 -8 -27 -8 -53 0 -27 -9 -86 -21 -132 -12 -46 -25 -113 -29
-148 -6 -43 -15 -71 -29 -84 -11 -12 -23 -18 -27 -15 -3 4 -8 35 -11 70 -5 65
-74 281 -98 308 -8 8 -15 38 -17 65 -3 47 -5 50 -33 53 -24 3 -36 14 -64 60
-19 31 -49 72 -67 92 -17 19 -46 61 -64 93 -19 34 -39 57 -49 57 -23 0 -47 45
-55 102 -5 34 -12 49 -27 53 -10 4 -22 18 -25 33 -4 15 -13 37 -21 50 -11 19
-12 33 -3 76 7 37 8 61 0 80 -5 15 -10 46 -10 69 0 24 -7 52 -15 64 -9 12 -17
53 -19 98 -5 76 -4 79 39 164 25 47 72 128 105 180 35 55 58 101 55 111 -3 10
7 28 25 45 26 25 30 36 30 82 0 50 2 55 31 71 100 55 159 95 217 148 202 184
297 276 303 292 4 9 34 33 68 52 34 19 72 42 84 51 l21 17 -27 35 c-23 31 -24
35 -9 41 9 3 24 9 32 14 8 5 28 15 44 23 20 9 33 25 38 46 5 18 17 37 28 43
11 6 17 16 13 26 -3 8 1 22 10 32 8 9 20 35 26 57 8 31 8 44 -5 62 -14 22 -13
24 11 33 15 6 34 10 44 10 26 0 31 9 21 35 -7 20 -4 30 20 55 22 23 28 38 24
55 -4 17 0 26 16 35 17 9 20 17 15 37 -7 31 6 42 50 43 l30 1 -27 20 c-30 22
-36 39 -14 39 7 0 20 10 28 21 12 19 24 22 95 23 77 1 82 2 77 21 -4 16 6 25
48 48 29 15 62 27 73 27 11 0 33 7 49 15 15 8 39 12 52 9 16 -4 26 -1 30 9 6
17 83 15 212 -5 55 -8 76 -8 84 0 7 7 25 12 40 12 15 0 37 9 48 20 11 11 33
20 48 20 15 0 72 6 127 13 60 9 112 11 130 6 17 -5 50 -8 75 -8 25 0 89 -2
143 -6 69 -4 103 -2 113 6 7 6 21 8 30 5 9 -3 20 -3 26 0 24 15 545 25 636 13
35 -5 91 -11 125 -13 34 -2 100 -11 145 -20 l84 -15 50 25 c27 14 60 27 72 28
11 1 34 6 50 11 20 5 31 4 36 -6 7 -10 14 -10 35 -1 15 7 31 10 36 6 5 -3 49
-12 96 -20 75 -12 95 -12 150 1 78 18 73 18 73 0 0 -16 49 -45 78 -45 10 0 22
-4 28 -9 5 -4 50 -21 99 -37 50 -15 92 -32 93 -36 2 -4 8 -8 13 -8 6 0 31 -10
57 -21 41 -19 58 -21 144 -16 77 5 103 3 128 -10 48 -23 93 -11 174 48 99 73
115 78 157 48 19 -13 38 -30 42 -37 7 -10 22 -12 57 -7 43 6 50 4 60 -15 11
-21 16 -22 87 -15 l74 7 -16 -31 c-20 -39 -14 -49 35 -57 26 -4 40 -12 43 -25
3 -11 12 -19 21 -19 9 0 16 -4 16 -10 0 -5 16 -16 35 -24 19 -8 35 -19 35 -24
0 -5 43 -31 96 -57 53 -27 98 -54 101 -61 2 -7 26 -31 53 -53 39 -33 71 -48
147 -71 160 -47 262 -71 359 -85 95 -13 144 -35 144 -64 0 -10 20 -32 45 -50
25 -18 45 -40 45 -50 0 -9 14 -27 30 -39 17 -13 30 -31 30 -41 0 -11 20 -30
50 -49 27 -17 50 -36 50 -42 0 -6 20 -19 45 -30 25 -11 45 -25 45 -33 0 -17
78 -82 121 -100 19 -8 71 -42 115 -75 78 -58 81 -62 80 -98 -1 -38 0 -39 90
-94 158 -96 270 -187 314 -254 44 -68 50 -78 72 -121 8 -16 25 -47 38 -68 l23
-38 -28 7 c-26 6 -27 5 -21 -23 10 -42 -14 -61 -56 -45 -26 10 -29 9 -23 -6
22 -54 24 -73 7 -78 -59 -19 -75 -30 -84 -55 -6 -18 -15 -26 -24 -22 -9 3 -14
-2 -14 -15 0 -11 -7 -25 -15 -32 -8 -7 -15 -25 -15 -41 0 -53 -41 -160 -65
-169 -12 -5 -25 -18 -28 -29 -7 -30 -25 -26 -33 7 -7 29 -31 62 -46 62 -13 0
0 -39 23 -72 25 -35 24 -82 -2 -124 -25 -41 -32 -42 -54 -8 -23 36 -30 23 -15
-31 12 -44 12 -46 -14 -70 -14 -13 -26 -29 -26 -35 0 -7 -8 -9 -19 -5 -16 5
-18 2 -14 -15 6 -22 -7 -26 -25 -8 -8 8 -14 5 -22 -16 -5 -15 -10 -33 -10 -39
-1 -19 -35 -55 -56 -58 -10 -2 -26 -19 -36 -37 -9 -19 -19 -29 -23 -23 -11 19
-27 12 -20 -8 9 -29 -12 -35 -29 -9 -17 28 -36 115 -36 167 0 20 -7 46 -16 57
-12 15 -15 16 -10 2 2 -9 8 -33 12 -52 5 -29 3 -36 -9 -36 -9 0 -19 5 -22 10
-5 8 -12 7 -23 -2 -12 -10 -16 -10 -19 0 -8 21 -23 13 -23 -13 0 -14 -8 -29
-20 -35 -16 -9 -20 -8 -20 5 0 30 -25 9 -28 -24 -3 -26 -7 -31 -23 -26 -16 5
-19 1 -19 -24 0 -17 -4 -31 -10 -31 -5 0 -10 11 -10 24 0 14 -4 28 -10 31 -13
8 -13 -5 6 -89 25 -119 38 -151 56 -148 9 1 26 -10 38 -25 18 -23 21 -36 16
-72 -5 -37 -2 -48 19 -73 29 -34 28 -44 -16 -126 -16 -29 -29 -62 -29 -75 0
-12 -7 -35 -15 -50 -8 -15 -12 -34 -8 -43 3 -8 -2 -23 -11 -33 -11 -12 -18
-51 -24 -137 -5 -65 -7 -124 -5 -130 2 -6 15 -16 29 -22 13 -7 24 -20 24 -30
0 -11 9 -27 20 -37 12 -11 20 -31 20 -50 0 -32 23 -61 65 -83 11 -6 31 -31 44
-56 23 -45 23 -47 6 -60 -18 -13 -18 -15 -2 -37 58 -81 98 -149 155 -267 l65
-134 187 -192 c135 -139 203 -218 248 -287 61 -93 100 -129 140 -129 11 0 49
7 84 16 52 14 92 15 236 10 159 -7 180 -10 255 -37 45 -17 131 -44 190 -60
129 -35 222 -80 296 -144 30 -26 81 -65 113 -86 67 -46 90 -76 86 -114 -3 -24
5 -31 71 -67 41 -23 149 -66 245 -96 l171 -55 200 -5 c109 -2 228 -1 262 3
l63 7 0 3419 0 3419 -6400 0 -6400 0 0 -4800z m9720 1017 c0 -5 -4 -5 -10 -2
-5 3 -10 14 -10 23 0 15 2 15 10 2 5 -8 10 -19 10 -23z m50 -123 c0 -8 -4 -14
-10 -14 -5 0 -10 9 -10 21 0 11 5 17 10 14 6 -3 10 -13 10 -21z m-4621 -68
c-1 -53 -20 -121 -34 -121 -14 0 -16 147 -3 179 11 27 12 27 25 10 7 -10 13
-41 12 -68z m4591 20 c-13 -13 -30 9 -30 39 1 19 2 18 21 -4 14 -17 17 -27 9
-35z m-50 -52 c0 -21 -4 -33 -10 -29 -5 3 -10 19 -10 36 0 16 5 29 10 29 6 0
10 -16 10 -36z m-70 -60 c0 -8 -4 -12 -10 -9 -5 3 -10 10 -10 16 0 5 5 9 10 9
6 0 10 -7 10 -16z m-5575 -205 c34 -20 44 -48 20 -55 -16 -5 -79 52 -71 64 9
15 9 16 51 -9z m575 -24 c22 -20 80 -19 110 3 30 21 103 24 95 4 -3 -8 -5 -16
-5 -18 0 -2 -9 -4 -20 -4 -13 0 -20 -7 -20 -20 0 -22 -10 -26 -27 -9 -9 9 -14
5 -18 -14 -4 -16 -12 -24 -20 -21 -7 3 -15 -3 -18 -13 -3 -14 -7 -11 -18 15
-15 37 -15 37 -63 17 -36 -15 -37 -15 -61 11 -27 29 -28 34 -19 59 8 20 57 14
84 -10z m-1194 -116 c-5 -42 -4 -59 3 -54 6 3 11 15 11 26 0 11 5 17 10 14 11
-7 6 -57 -13 -115 -6 -19 -11 -39 -12 -45 0 -5 -7 -22 -14 -37 -11 -21 -11
-31 -2 -41 9 -11 7 -20 -9 -38 l-21 -24 5 40 c3 22 8 103 12 180 7 146 8 155
26 155 7 0 8 -20 4 -61z m1464 -14 c0 -12 -29 -3 -34 10 -4 13 -2 14 14 5 11
-6 20 -13 20 -15z m-35 -35 c16 -17 16 -20 3 -15 -9 4 -19 13 -22 21 -7 19 -2
18 19 -6z m135 -11 c0 -6 -4 -7 -10 -4 -5 3 -10 11 -10 16 0 6 5 7 10 4 6 -3
10 -11 10 -16z m-1800 -208 c0 -72 18 -110 60 -121 31 -9 37 -7 52 13 10 12
18 25 18 30 0 4 5 7 11 7 6 0 8 -9 4 -22 -6 -18 -4 -20 11 -13 11 4 28 10 39
13 19 5 19 4 3 -14 -20 -22 -61 -115 -54 -121 3 -3 31 9 63 26 59 32 53 27
-39 -38 -50 -35 -67 -59 -137 -196 -22 -42 -31 -50 -57 -53 -50 -5 -51 20 -16
311 6 51 5 72 -4 85 -19 24 -17 107 2 144 16 30 17 31 30 13 8 -10 14 -39 14
-64z m936 -159 c-8 -13 -96 -65 -102 -60 -4 5 99 75 105 72 1 -2 0 -7 -3 -12z
m23 -41 c-13 -11 -28 -20 -34 -20 -5 0 3 11 20 24 16 13 31 22 34 20 2 -3 -7
-13 -20 -24z m428 -43 c-3 -8 -6 -5 -6 6 -1 11 2 17 5 13 3 -3 4 -12 1 -19z
m-167 -27 c0 -6 -4 -13 -10 -16 -5 -3 -10 1 -10 9 0 9 5 16 10 16 6 0 10 -4
10 -9z m40 -1 c0 -5 -9 -14 -21 -20 -19 -11 -20 -10 -9 9 11 22 30 29 30 11z
m-317 -30 c-9 -16 -21 -30 -26 -30 -9 0 -1 17 21 43 23 26 25 21 5 -13z m467
15 c0 -8 -4 -15 -10 -15 -5 0 -7 7 -4 15 4 8 8 15 10 15 2 0 4 -7 4 -15z
m-130 -19 c0 -7 -7 -19 -15 -26 -16 -13 -20 -3 -9 24 8 20 24 21 24 2z m310
-36 c0 -13 -1 -13 -10 0 -5 8 -10 22 -10 30 0 13 1 13 10 0 5 -8 10 -22 10
-30z m-715 10 c3 -5 -1 -24 -10 -41 -9 -17 -12 -28 -6 -25 6 4 11 5 11 2 0
-14 -49 -114 -59 -120 -16 -10 -14 6 10 60 11 27 16 50 11 52 -6 2 -3 20 6 42
17 40 26 48 37 30z m128 -101 c-14 -52 -21 -20 -9 41 9 47 11 50 14 24 2 -18
-1 -47 -5 -65z m57 64 c0 -19 -3 -24 -10 -17 -6 6 -8 18 -4 27 9 24 14 21 14
-10z m660 -13 c0 -13 -1 -13 -10 0 -5 8 -10 22 -10 30 0 13 1 13 10 0 5 -8 10
-22 10 -30z m-820 16 c0 -3 -4 -8 -10 -11 -5 -3 -10 -1 -10 4 0 6 5 11 10 11
6 0 10 -2 10 -4z m630 -18 c0 -13 -4 -29 -8 -36 -5 -8 -8 1 -8 23 1 19 4 35 9
35 4 0 7 -10 7 -22z m30 -8 c0 -11 -4 -20 -9 -20 -5 0 -7 9 -4 20 3 11 7 20 9
20 2 0 4 -9 4 -20z m67 -52 c-3 -8 -6 -5 -6 6 -1 11 2 17 5 13 3 -3 4 -12 1
-19z m70 -40 c-3 -8 -6 -5 -6 6 -1 11 2 17 5 13 3 -3 4 -12 1 -19z m-117 2 c0
-5 -5 -10 -11 -10 -5 0 -7 5 -4 10 3 6 8 10 11 10 2 0 4 -4 4 -10z m230 -50
c0 -13 -1 -13 -10 0 -5 8 -10 22 -10 30 0 13 1 13 10 0 5 -8 10 -22 10 -30z
m130 -39 c-1 -12 -5 -11 -20 8 -11 13 -20 31 -20 40 1 12 5 11 20 -8 11 -13
20 -31 20 -40z m181 -98 c13 -16 12 -17 -3 -4 -10 7 -18 15 -18 17 0 8 8 3 21
-13z m147 -141 c2 -7 -3 -12 -12 -12 -9 0 -16 7 -16 16 0 17 22 14 28 -4z m73
-49 c18 -21 22 -28 8 -15 -14 12 -28 20 -31 17 -3 -3 -8 3 -11 15 -3 11 -4 20
-3 20 1 0 18 -17 37 -37z m-7 -38 c3 -8 1 -15 -4 -15 -6 0 -10 7 -10 15 0 8 2
15 4 15 2 0 6 -7 10 -15z m182 -83 c-6 -5 -76 51 -76 61 0 4 18 -7 40 -24 22
-18 38 -34 36 -37z m834 19 c19 -16 32 -32 29 -35 -3 -3 -23 10 -45 29 -47 41
-33 47 16 6z m-730 9 c12 -8 11 -10 -7 -10 -13 0 -23 5 -23 10 0 13 11 13 30
0z m-447 -60 c7 -27 2 -63 -23 -166 l-32 -132 16 -71 c22 -95 16 -115 -32
-118 -20 -1 -66 -5 -102 -8 -53 -6 -63 -5 -53 6 7 7 33 13 58 14 49 1 82 23
72 49 -10 25 -27 19 -27 -9 0 -28 -12 -32 -30 -10 -16 20 -36 19 -44 -1 -4
-10 -12 -14 -23 -10 -10 4 -27 -4 -47 -22 -17 -16 -54 -37 -82 -47 -41 -15
-50 -22 -46 -37 6 -26 82 -58 139 -59 l48 0 -75 -19 c-41 -10 -138 -28 -215
-40 -77 -12 -163 -26 -190 -32 -50 -10 -135 3 -135 21 0 4 13 20 29 35 l28 27
17 -26 c9 -14 24 -25 33 -25 13 0 14 3 5 12 -18 18 -14 45 9 61 13 9 16 17 10
22 -19 11 -12 25 14 25 16 0 25 -6 25 -15 0 -19 5 -19 34 0 18 12 29 13 55 4
41 -14 81 -4 81 20 0 10 -7 22 -16 25 -28 11 -91 6 -103 -8 -16 -19 -149 -15
-162 5 -5 7 -9 9 -9 3 0 -6 -18 -14 -40 -18 -30 -5 -47 -1 -72 14 -18 11 -42
20 -54 20 -25 0 -44 21 -73 77 -12 23 -30 47 -42 53 -33 18 -90 148 -91 208
-2 94 42 105 119 30 33 -32 40 -45 31 -55 -13 -16 3 -39 34 -49 11 -3 17 -12
14 -20 -3 -8 1 -14 10 -14 8 0 29 -7 46 -16 l32 -16 -32 -14 c-18 -7 -32 -16
-32 -20 0 -7 54 0 85 12 17 7 18 6 7 -8 -10 -13 -10 -17 5 -24 10 -4 32 -9 48
-10 51 -4 90 -18 90 -34 0 -26 45 -24 75 5 31 30 117 65 159 65 89 0 193 79
282 215 113 173 107 167 136 163 21 -2 29 -10 36 -38z m564 -10 c7 0 15 -4 18
-10 14 -23 -18 -8 -48 23 -18 17 -21 22 -7 10 14 -13 31 -23 37 -23z m383 9
c0 -5 -7 -9 -15 -9 -9 0 -15 9 -15 21 0 18 2 19 15 9 8 -7 15 -16 15 -21z
m-426 -35 c9 -20 15 -38 13 -41 -7 -6 -47 48 -47 63 0 25 16 14 34 -22z m243
-3 c3 -11 13 -21 24 -24 22 -6 26 -37 5 -37 -16 0 -27 14 -44 53 -8 18 -8 27
-1 27 6 0 13 -9 16 -19z m-307 -11 c20 -31 11 -44 -13 -22 -13 12 -29 22 -35
22 -7 0 -12 4 -12 8 0 14 50 7 60 -8z m283 -65 c-5 -25 -6 -25 -35 -7 -25 15
-30 15 -38 2 -8 -12 -10 -11 -10 6 0 17 5 20 29 16 16 -2 32 1 36 7 11 19 23
3 18 -24z m-277 0 c10 -8 14 -15 7 -15 -19 0 -43 11 -43 21 0 13 14 11 36 -6z
m630 -101 c-4 -9 -9 -15 -11 -12 -3 3 -3 13 1 22 4 9 9 15 11 12 3 -3 3 -13
-1 -22z m127 -5 c15 12 27 5 27 -16 0 -10 -7 -12 -19 -8 -11 3 -22 1 -26 -5
-3 -5 -23 -10 -43 -9 -31 0 -34 2 -15 9 16 7 20 14 16 31 -6 21 -5 21 21 4 19
-13 29 -15 39 -6z m-2593 -139 c0 -5 -5 -10 -11 -10 -5 0 -7 5 -4 10 3 6 8 10
11 10 2 0 4 -4 4 -10z m2520 -10 c0 -12 -28 -25 -36 -17 -9 9 6 27 22 27 8 0
14 -5 14 -10z m-360 -120 c0 -5 -8 -10 -17 -10 -15 0 -16 2 -3 10 19 12 20 12
20 0z m255 -10 c-3 -5 -10 -10 -16 -10 -5 0 -9 5 -9 10 0 6 7 10 16 10 8 0 12
-4 9 -10z m-1248 -82 c-3 -8 -6 -5 -6 6 -1 11 2 17 5 13 3 -3 4 -12 1 -19z
m473 -46 c0 -12 -23 -32 -37 -32 -11 0 -11 4 -1 20 13 20 38 28 38 12z m-376
-41 c7 -10 -42 -33 -55 -25 -14 8 10 34 32 34 10 0 20 -4 23 -9z m101 -35
c-16 -23 -15 -25 9 -41 17 -12 35 -15 56 -10 26 6 31 3 40 -20 13 -34 13 -48
0 -40 -6 4 -8 11 -5 16 10 15 -22 10 -35 -6 -14 -17 -50 -4 -50 18 0 15 -51
47 -74 47 -9 0 -16 6 -16 14 0 21 24 36 48 29 13 -3 22 -1 22 6 0 6 5 11 10
11 6 0 3 -11 -5 -24z m296 -6 c13 0 19 -7 19 -23 0 -36 -8 -37 -40 -5 -34 33
-38 43 -14 34 9 -3 24 -6 35 -6z m-1672 -80 c-21 -38 -49 -60 -49 -39 0 17 29
67 42 72 27 11 29 6 7 -33z m751 -14 c0 -16 -18 -31 -27 -22 -8 8 5 36 17 36
5 0 10 -6 10 -14z m770 -51 c0 -8 -6 -15 -14 -15 -17 0 -28 14 -19 24 12 12
33 6 33 -9z m-89 -92 c13 -16 12 -17 -3 -4 -10 7 -18 15 -18 17 0 8 8 3 21
-13z m-1001 3 c0 -3 -4 -8 -10 -11 -5 -3 -10 -1 -10 4 0 6 5 11 10 11 6 0 10
-2 10 -4z m765 -6 c3 -5 2 -10 -4 -10 -5 0 -13 5 -16 10 -3 6 -2 10 4 10 5 0
13 -4 16 -10z m65 -30 c0 -5 -2 -10 -4 -10 -3 0 -8 5 -11 10 -3 6 -1 10 4 10
6 0 11 -4 11 -10z m1210 -20 c-33 -26 -48 -26 -25 0 10 11 25 20 34 20 12 0 9
-6 -9 -20z m-2850 -20 c0 -5 -5 -10 -11 -10 -5 0 -7 5 -4 10 3 6 8 10 11 10 2
0 4 -4 4 -10z m793 -30 c-25 -43 -62 -87 -63 -74 0 16 58 104 70 104 7 0 3
-13 -7 -30z m416 -73 c1 -19 -3 -26 -11 -21 -8 5 -9 2 -5 -9 4 -10 1 -29 -5
-43 -10 -20 -9 -30 5 -54 39 -66 3 -35 -58 50 -31 43 -48 40 -19 -5 9 -14 14
-28 11 -31 -4 -5 -67 80 -67 92 0 2 7 4 15 4 13 0 15 8 10 38 -4 24 -3 32 3
23 6 -8 12 -9 16 -3 9 15 44 11 50 -5 9 -22 25 -14 33 15 l7 27 7 -25 c4 -14
7 -38 8 -53z m1251 -19 c0 -6 -6 -5 -15 2 -8 7 -15 14 -15 16 0 2 7 1 15 -2 8
-4 15 -11 15 -16z m970 -2358 c19 -17 31 -30 26 -30 -14 0 -86 43 -86 52 0 16
26 7 60 -22z"/>
<path d="M4922 3428 c-26 -26 -14 -39 31 -32 53 8 57 12 33 30 -24 17 -48 18
-64 2z"/>
<path d="M4742 2780 c0 -14 2 -19 5 -12 2 6 2 18 0 25 -3 6 -5 1 -5 -13z"/>
<path d="M7883 7873 c-18 -4 -21 -11 -21 -48 1 -38 4 -44 26 -50 18 -4 34 0
53 14 16 12 38 21 51 21 19 0 20 2 8 10 -8 5 -32 10 -52 10 -36 0 -49 12 -28
25 6 3 10 10 10 16 0 9 -8 10 -47 2z"/>
<path d="M7870 7739 c0 -11 10 -29 23 -39 30 -24 15 -37 -19 -16 -20 14 -37
16 -74 11 -46 -6 -47 -7 -36 -30 6 -13 22 -27 34 -30 19 -5 21 -9 12 -20 -9
-11 -6 -17 15 -31 l27 -18 -23 -8 c-23 -9 -23 -9 9 -28 37 -23 42 -41 10 -33
-18 4 -20 3 -12 -6 6 -7 30 -15 53 -18 22 -3 46 -12 53 -21 12 -13 10 -14 -12
-3 l-25 12 24 -20 c12 -12 27 -19 31 -16 15 9 22 -15 10 -30 -9 -11 -4 -24 24
-61 31 -41 43 -64 33 -64 -2 0 -18 11 -37 25 -57 42 -65 29 -19 -27 23 -29 51
-61 62 -71 11 -10 17 -20 14 -23 -3 -4 -13 1 -22 10 -35 34 -47 14 -15 -26 10
-14 17 -27 15 -30 -6 -5 12 -64 44 -148 25 -66 26 -72 4 -68 -14 2 -18 -4 -18
-32 0 -31 3 -35 30 -38 39 -5 41 -9 37 -77 -4 -55 -4 -56 -23 -39 -27 24 -35
10 -13 -23 22 -34 31 -125 10 -102 -7 8 -18 33 -25 57 -21 73 -33 50 -24 -45
4 -49 7 -106 6 -128 -1 -22 -1 -53 0 -70 2 -64 2 -224 0 -295 -5 -180 0 -285
14 -306 13 -20 12 -26 -2 -53 -14 -28 -14 -34 0 -67 8 -19 14 -45 14 -57 0
-12 3 -43 7 -69 4 -32 3 -53 -6 -63 -10 -12 -6 -21 19 -52 23 -28 31 -48 31
-78 0 -23 5 -46 12 -53 12 -12 18 -163 6 -155 -14 8 -9 -22 7 -43 8 -10 15
-31 15 -46 0 -15 5 -30 11 -33 6 -4 7 -19 4 -35 -5 -24 -1 -31 30 -50 37 -23
43 -40 7 -21 -30 16 -31 14 -19 -19 10 -25 9 -33 -3 -40 -12 -8 -11 -13 7 -32
27 -29 43 -70 43 -111 0 -25 -3 -29 -11 -17 -12 17 -7 -99 5 -118 4 -7 1 -12
-9 -12 -29 0 2 -38 48 -58 26 -12 59 -41 87 -75 45 -56 65 -71 53 -41 -12 32
29 9 48 -26 93 -177 104 -212 99 -294 -1 -21 -30 -47 -43 -39 -5 3 -13 17 -18
31 -10 26 -11 26 -24 8 -8 -10 -16 -24 -18 -30 -3 -7 -11 -5 -24 6 -25 22 -33
23 -33 1 0 -13 -6 -11 -28 10 -35 34 -44 34 -36 2 4 -15 1 -32 -6 -40 -11 -13
-3 -25 51 -75 62 -59 76 -94 20 -52 l-29 21 -5 -21 c-4 -14 2 -31 19 -50 28
-34 29 -41 10 -57 -10 -8 -31 -10 -63 -5 -47 7 -48 6 -30 -13 30 -34 20 -38
-40 -16 -9 3 -13 -4 -13 -22 0 -20 4 -26 15 -22 9 4 23 -5 36 -24 l21 -30 82
7 82 6 -4 -36 c-3 -24 0 -36 8 -36 7 0 10 -7 6 -17 -4 -9 -1 -20 6 -25 8 -5 2
-8 -18 -8 -35 0 -54 -16 -54 -45 0 -12 -11 -36 -24 -54 -14 -18 -22 -39 -19
-47 3 -8 -7 -30 -22 -50 -31 -40 -24 -57 21 -52 22 2 30 10 37 34 6 22 18 34
42 43 25 9 37 22 50 53 9 23 23 47 32 53 13 9 13 16 4 33 -10 19 -9 22 9 22
19 0 41 27 95 115 28 46 122 138 133 131 22 -13 106 86 157 185 20 37 19 42
-5 34 -18 -6 -20 -2 -20 53 0 33 7 79 16 103 8 24 13 59 10 77 -6 37 3 102 14
102 4 0 16 -12 26 -27 25 -38 23 -121 -4 -166 -18 -31 -19 -39 -8 -71 7 -20
20 -42 29 -49 18 -13 106 -234 138 -347 22 -79 25 -138 6 -122 -7 6 -32 51
-56 99 -89 182 -82 174 -124 140 l-29 -22 31 -38 c16 -21 28 -44 25 -52 -3 -7
-1 -16 5 -20 8 -4 8 -12 0 -27 -8 -16 -8 -31 0 -59 8 -26 8 -45 2 -57 -7 -13
-4 -23 15 -41 l24 -23 -30 -53 c-17 -30 -30 -57 -28 -62 5 -18 -14 -52 -33
-58 -12 -4 -19 -14 -17 -23 3 -16 -56 -82 -73 -82 -5 0 -4 -9 3 -20 11 -17 10
-22 -1 -30 -12 -7 -12 -11 -2 -24 10 -12 8 -19 -13 -37 -20 -18 -23 -25 -14
-36 9 -11 1 -25 -39 -66 -28 -29 -64 -77 -82 -108 -17 -31 -40 -59 -51 -62
-17 -4 -18 -8 -7 -31 7 -14 21 -27 32 -28 33 -5 23 -26 -30 -66 -32 -24 -49
-45 -48 -57 1 -10 -7 -30 -18 -43 -10 -14 -19 -31 -19 -39 0 -8 -17 -34 -37
-59 -30 -35 -44 -44 -69 -44 -34 0 -64 -21 -64 -46 0 -8 -7 -17 -15 -20 -20
-8 -19 -40 2 -48 15 -6 15 -8 3 -16 -10 -6 -23 -4 -37 6 -13 8 -23 11 -24 7
-1 -5 -2 -17 -3 -27 -1 -25 -67 -48 -116 -40 -45 7 -81 -10 -130 -61 l-35 -38
28 7 c15 4 27 2 27 -3 0 -6 -12 -18 -27 -26 -28 -16 -9 -16 30 0 10 4 17 3 17
-4 0 -6 -4 -11 -10 -11 -5 0 -10 -6 -10 -14 0 -7 -10 -26 -22 -41 l-22 -28 27
5 c27 5 36 -5 16 -18 -6 -3 -9 -15 -6 -25 3 -10 -1 -23 -9 -30 -8 -6 -14 -22
-14 -34 0 -12 -7 -28 -15 -35 -17 -14 -9 -34 11 -26 22 8 17 -6 -15 -44 -45
-55 -47 -75 -12 -96 23 -14 28 -21 19 -31 -7 -9 -6 -14 6 -19 9 -3 16 -12 16
-20 0 -7 8 -17 17 -23 17 -9 17 -10 0 -29 -10 -11 -17 -29 -16 -39 2 -10 0
-31 -4 -47 -6 -21 -4 -31 9 -40 14 -11 11 -17 -32 -55 l-49 -42 53 6 c28 4 52
4 52 1 0 -4 -7 -18 -16 -31 -14 -22 -14 -25 -1 -25 8 0 17 -7 21 -15 7 -19 56
-19 100 -1 32 13 34 17 32 58 -2 35 4 53 32 96 33 49 34 53 19 70 -16 17 -14
20 27 55 25 21 49 52 56 71 8 26 21 40 51 52 21 10 42 27 45 38 4 11 39 63 79
116 81 107 148 206 158 233 3 9 11 17 17 17 5 0 10 14 10 30 0 18 12 47 30 72
17 22 30 47 30 55 0 8 14 45 30 83 17 38 30 77 30 88 0 10 13 36 29 56 16 20
35 60 41 89 16 66 67 197 86 218 7 8 17 30 20 47 4 17 13 37 20 43 8 6 14 26
14 43 0 60 18 103 46 110 22 6 25 11 20 34 -17 75 -17 88 3 120 19 29 25 32
71 32 44 0 52 3 62 25 9 21 8 29 -9 48 -25 27 -76 138 -67 146 4 3 11 -2 18
-13 25 -42 59 -76 75 -76 12 0 22 13 31 39 11 34 10 43 -9 85 -19 43 -20 56
-11 149 5 56 14 125 20 152 12 54 6 178 -12 260 -17 78 -53 149 -102 204 -26
29 -57 74 -71 101 -24 47 -46 62 -60 40 -12 -19 -51 -11 -62 13 -6 12 -28 31
-49 42 -22 11 -51 33 -66 50 -20 22 -30 27 -36 18 -6 -9 -22 1 -57 33 -28 25
-70 62 -95 82 -61 49 -117 108 -125 132 -4 11 -12 20 -19 20 -7 0 -32 27 -57
60 -24 33 -56 77 -71 97 -16 19 -28 39 -28 43 0 4 -20 34 -45 66 -25 31 -45
68 -45 80 0 12 -11 36 -25 52 -14 17 -28 45 -31 64 -3 18 -14 56 -24 83 -52
139 -97 314 -105 410 -9 103 -26 209 -35 215 -4 3 1 37 12 75 28 96 34 260 13
360 -16 80 -13 109 11 78 12 -17 13 -17 14 -1 0 21 30 13 30 -8 0 -8 5 -14 10
-14 6 0 10 5 10 10 0 21 16 9 27 -20 6 -16 7 -30 2 -30 -14 0 -10 -49 7 -86
11 -23 13 -38 7 -47 -6 -7 -8 -52 -4 -112 5 -88 8 -97 19 -77 15 26 37 31 24
5 -5 -10 -22 -54 -37 -98 l-27 -79 21 -17 c13 -10 19 -26 18 -44 -3 -40 18
-42 30 -3 10 31 11 31 12 7 1 -14 -6 -46 -15 -72 -9 -26 -14 -52 -11 -59 7
-20 47 73 47 110 0 39 20 43 21 5 l1 -28 14 32 c7 17 19 35 25 39 8 5 9 3 4
-6 -9 -14 11 -30 38 -30 19 0 24 36 5 42 -8 3 -4 14 10 34 20 27 45 109 60
199 7 36 9 38 19 20 6 -11 15 -16 19 -12 4 4 0 20 -9 36 -9 16 -18 59 -21 102
-2 41 -9 87 -15 102 -6 16 -10 41 -9 55 1 15 -9 47 -22 72 -21 41 -22 52 -16
148 l7 104 -39 37 c-21 20 -49 53 -61 74 -12 20 -27 37 -31 37 -5 0 -14 19
-21 43 -6 23 -18 55 -26 70 -8 16 -13 37 -10 48 4 13 -5 32 -22 52 -16 18 -34
43 -41 56 -17 33 -50 164 -59 236 -11 80 -33 120 -116 207 l-70 73 33 3 c36 4
39 10 17 38 -14 18 -16 18 -29 2 -16 -22 -39 -23 -56 -3 -19 23 -60 19 -60 -6z
m61 -162 c-13 -13 -26 -3 -16 12 3 6 11 8 17 5 6 -4 6 -10 -1 -17z m499 -821
c0 -5 -7 -3 -15 4 -8 7 -15 22 -15 34 1 20 2 20 15 -4 8 -14 14 -29 15 -34z
m-220 -178 c0 -5 -4 -8 -10 -8 -5 0 -10 10 -10 23 0 18 2 19 10 7 5 -8 10 -18
10 -22z m-89 -342 c-6 -25 -11 -59 -11 -75 0 -17 -5 -31 -11 -31 -8 0 -10 16
-5 53 3 28 6 70 6 92 0 36 1 38 16 23 14 -14 15 -23 5 -62z m378 27 l-1 -48
-14 34 c-15 34 -13 61 6 61 5 0 10 -21 9 -47z m-49 -50 c0 -29 -35 -8 -38 22
-4 30 -4 30 17 11 12 -11 21 -25 21 -33z m-160 -3 c0 -11 -2 -20 -4 -20 -2 0
-6 9 -9 20 -3 11 -1 20 4 20 5 0 9 -9 9 -20z m186 -59 c-9 -16 -16 -51 -16
-76 0 -33 -4 -45 -12 -43 -16 6 -23 77 -9 91 6 6 11 21 11 33 0 13 7 24 18 26
25 6 25 3 8 -31z m514 -1701 c0 -5 -4 -10 -10 -10 -5 0 -10 5 -10 10 0 6 5 10
10 10 6 0 10 -4 10 -10z m-392 -65 c6 -14 8 -25 4 -25 -12 0 -32 23 -32 37 0
22 16 15 28 -12z m52 -92 c20 -52 39 -149 40 -195 0 -38 -19 -15 -25 30 -4 26
-18 83 -31 128 -27 90 -28 94 -15 94 5 0 19 -26 31 -57z m77 -30 c20 -50 8
-53 -16 -4 -24 46 -26 55 -10 45 6 -3 18 -22 26 -41z m32 -137 c12 -44 6 -62
-15 -45 -16 13 -29 73 -19 89 10 16 21 2 34 -44z m454 -754 c19 -21 6 -42 -25
-42 -13 0 -18 8 -18 30 0 34 18 39 43 12z"/>
<path d="M3736 7583 c-3 -3 -6 -13 -6 -21 0 -9 -8 -24 -17 -35 -17 -18 -17
-19 7 -16 17 3 25 11 26 25 1 12 4 26 8 32 7 12 -8 25 -18 15z"/>
<path d="M3690 7455 c0 -18 5 -25 19 -25 26 0 44 23 29 38 -22 22 -48 14 -48
-13z"/>
<path d="M9260 7410 c0 -6 7 -10 15 -10 8 0 15 2 15 4 0 2 -7 6 -15 10 -8 3
-15 1 -15 -4z"/>
<path d="M3660 7360 c-8 -5 -11 -12 -7 -16 4 -4 13 -2 19 4 15 15 7 24 -12 12z"/>
<path d="M9110 7343 c0 -5 9 -18 20 -28 11 -10 20 -14 20 -8 0 5 -9 18 -20 28
-11 10 -20 14 -20 8z"/>
<path d="M9475 7230 c3 -5 11 -10 16 -10 6 0 7 5 4 10 -3 6 -11 10 -16 10 -6
0 -7 -4 -4 -10z"/>
<path d="M6342 7129 c-23 -17 -42 -35 -42 -39 0 -5 -18 -30 -40 -55 -22 -25
-40 -55 -40 -66 0 -12 -7 -19 -19 -19 -15 0 -20 10 -25 45 -7 45 -26 63 -26
25 0 -11 5 -20 10 -20 16 0 12 -50 -5 -56 -8 -4 -15 -18 -16 -33 0 -25 0 -25
-9 -3 -5 12 -12 22 -14 22 -3 0 -3 -6 0 -13 3 -8 -3 -20 -12 -28 -14 -12 -19
-10 -40 16 -26 33 -31 24 -9 -15 21 -37 18 -46 -6 -19 -18 21 -20 21 -14 4 17
-47 18 -65 2 -59 -15 5 -57 -27 -57 -44 0 -14 -36 -43 -43 -35 -4 3 -7 -1 -7
-10 0 -16 -17 -22 -47 -18 -20 3 -15 -17 7 -31 11 -7 20 -17 20 -22 0 -4 -6
-3 -14 3 -11 9 -15 8 -19 -6 -2 -10 -8 -27 -12 -38 -5 -11 -5 -17 0 -13 4 4
14 3 21 -3 11 -9 10 -16 -4 -37 -15 -23 -15 -25 -1 -20 9 4 22 1 29 -5 10 -9
14 -9 17 0 2 7 10 10 18 7 7 -3 16 -1 20 5 3 6 1 11 -4 11 -22 0 -10 18 19 29
24 8 30 7 30 -4 0 -9 6 -12 16 -8 10 3 30 -11 59 -41 46 -47 78 -60 73 -28 -2
9 3 17 10 16 6 -1 21 -2 33 -2 14 -2 19 -7 15 -17 -4 -12 3 -15 29 -15 20 0
43 5 53 11 14 9 26 7 53 -7 19 -10 37 -19 42 -20 4 -1 8 -3 10 -4 1 -1 11 -4
22 -5 11 -2 29 -6 39 -11 16 -6 18 -4 13 9 -8 21 6 22 23 2 18 -22 33 -18 27
6 -5 19 -3 19 26 -7 19 -17 24 -20 13 -6 -11 12 -17 24 -14 27 3 3 11 -1 18
-10 7 -8 20 -15 29 -15 9 0 28 -7 41 -16 18 -11 16 -8 -5 10 -25 22 -27 26
-11 26 18 0 18 1 1 20 -21 23 -9 26 18 5 23 -17 48 -9 40 12 -5 12 -1 14 15 9
25 -8 74 3 66 15 -7 12 3 11 29 -3 20 -10 21 -10 8 6 -12 14 -12 18 5 30 20
15 79 11 102 -7 8 -6 12 -6 12 3 0 7 6 10 14 7 8 -3 19 0 25 7 6 7 22 11 36 8
27 -5 33 9 13 30 -7 7 -26 31 -43 53 -16 22 -42 52 -58 68 -17 15 -23 27 -16
27 11 1 10 3 -2 13 -8 7 -29 33 -47 58 -18 27 -42 49 -56 53 -35 9 -70 47 -54
58 9 5 6 8 -9 8 -30 0 -54 11 -47 21 3 5 -9 12 -26 16 -22 4 -27 8 -19 14 17
10 -1 17 -56 21 l-40 3 33 18 c19 10 32 20 30 22 -2 2 -30 -4 -62 -13 -45 -12
-61 -13 -64 -4 -6 19 -19 14 -26 -10 -7 -22 -8 -22 -15 -4 -5 14 -10 16 -15 7
-5 -7 -15 -10 -23 -6 -9 3 -27 -2 -40 -11 -14 -8 -27 -14 -29 -11 -8 7 8 37
20 37 11 0 52 87 44 95 -2 3 -23 -9 -46 -26z m333 -194 c17 -13 25 -24 18 -25
-7 0 -25 11 -40 25 -36 32 -17 32 22 0z m-128 -70 c53 -22 30 -39 -52 -38 -36
0 -65 -4 -65 -9 0 -5 -4 -6 -10 -3 -15 9 -12 23 10 45 24 24 67 26 117 5z"/>
<path d="M9220 7082 c0 -5 7 -15 15 -22 8 -7 15 -8 15 -2 0 5 -7 15 -15 22 -8
7 -15 8 -15 2z"/>
<path d="M9353 7063 c3 -10 8 -30 11 -44 4 -17 52 -70 131 -144 69 -65 128
-128 131 -141 7 -29 40 -59 49 -45 3 6 -5 26 -19 44 -15 19 -26 43 -26 55 0
14 -10 24 -33 31 -46 15 -191 165 -212 219 -17 40 -41 60 -32 25z"/>
<path d="M4250 7046 c0 -16 -2 -16 -16 -5 -9 8 -18 9 -22 3 -4 -5 -31 -10 -61
-11 -30 -1 -57 -6 -60 -11 -3 -4 -32 -14 -64 -22 -32 -7 -66 -20 -75 -27 -15
-13 -15 -14 8 -8 14 3 42 9 63 12 44 7 50 -10 9 -25 -16 -5 -44 -23 -63 -40
-19 -16 -43 -31 -53 -33 -11 -2 -23 -16 -27 -32 -4 -16 -19 -43 -33 -62 -19
-24 -26 -46 -26 -78 0 -41 2 -45 50 -76 28 -18 50 -37 50 -42 0 -5 9 -9 21 -9
11 0 34 -9 50 -20 22 -16 33 -19 48 -10 24 12 84 13 76 1 -11 -19 13 -20 29
-2 10 11 25 17 37 14 10 -3 26 0 34 7 12 10 20 10 38 1 30 -16 64 -3 117 45
36 33 45 36 80 31 45 -6 48 0 20 35 -10 14 -16 28 -12 32 3 4 1 11 -6 15 -7 4
-10 15 -6 25 6 16 8 16 27 -1 19 -18 20 -17 8 4 -6 12 -8 29 -5 37 4 11 0 16
-13 16 -24 0 -43 19 -36 36 4 10 -3 14 -21 14 -15 0 -26 6 -26 14 0 7 -7 19
-16 27 -8 7 -31 35 -50 63 -18 28 -43 62 -54 76 -17 22 -20 23 -20 6z m21
-176 c31 -17 24 -41 -10 -34 -19 4 -38 0 -52 -10 -35 -24 -58 -21 -52 7 11 43
67 62 114 37z"/>
<path d="M6207 7023 c-4 -3 -7 -16 -6 -27 0 -19 1 -19 10 3 10 24 8 36 -4 24z"/>
<path d="M6112 6973 c5 -25 28 -28 28 -4 0 12 -6 21 -16 21 -9 0 -14 -7 -12
-17z"/>
<path d="M8330 6971 c0 -12 5 -21 10 -21 6 0 10 6 10 14 0 8 -4 18 -10 21 -5
3 -10 -3 -10 -14z"/>
<path d="M6080 6953 c0 -12 5 -25 10 -28 13 -8 13 15 0 35 -8 12 -10 11 -10
-7z"/>
<path d="M9010 6946 c-5 -15 -5 -37 1 -58 11 -40 12 -57 1 -43 -4 6 -20 21
-36 35 -30 26 -27 11 5 -25 24 -27 79 -133 79 -152 0 -13 -3 -13 -15 -3 -13
10 -15 9 -15 -9 0 -17 -6 -21 -30 -21 -27 0 -30 -3 -29 -32 0 -43 -11 -98 -21
-98 -4 0 -11 7 -14 16 -4 9 -9 14 -12 11 -3 -3 8 -26 25 -51 39 -56 39 -67 1
-59 -30 5 -30 5 -30 -40 0 -37 6 -53 35 -87 19 -23 35 -51 35 -63 0 -20 0 -21
-16 -1 -11 14 -17 16 -21 6 -4 -10 -9 -10 -23 3 -22 20 -35 5 -26 -30 4 -16
24 -32 71 -54 39 -18 65 -36 65 -45 0 -9 5 -16 12 -16 6 0 20 -8 30 -17 15
-14 21 -15 27 -4 5 8 17 11 30 6 14 -4 21 -2 21 7 1 16 27 -16 47 -57 l14 -30
-5 30 c-10 60 -34 102 -63 110 -44 10 -71 32 -93 75 -23 45 -24 50 -10 50 6 0
25 -22 42 -50 34 -55 42 -62 28 -25 -9 22 -7 25 15 25 16 0 26 -7 31 -22 l7
-23 8 23 c18 47 70 -18 54 -68 -5 -17 17 -50 35 -50 16 0 21 38 8 59 -18 30
-2 37 22 10 l21 -24 -6 35 c-4 19 -9 45 -12 58 -7 28 17 30 42 2 10 -11 25
-22 35 -25 9 -3 22 -17 29 -31 21 -46 20 -21 -1 41 -21 65 -38 91 -38 59 0
-14 -5 -11 -20 14 -11 17 -24 32 -29 32 -9 0 -41 61 -41 79 0 21 20 11 38 -19
12 -19 22 -26 28 -20 6 6 20 4 38 -5 16 -9 37 -13 47 -10 10 4 28 1 39 -5 28
-15 36 -7 15 14 -9 9 -12 16 -7 16 6 0 20 -12 31 -27 22 -30 27 -20 11 21 -9
25 2 37 15 16 10 -16 38 -12 31 5 -7 19 -7 19 48 -5 38 -16 46 -17 46 -5 0 8
5 15 10 15 6 0 10 6 10 13 0 19 -122 76 -127 60 -3 -7 -11 -13 -19 -13 -16 0
-104 84 -104 100 0 5 38 -10 84 -35 96 -52 125 -57 79 -15 -27 24 -31 33 -24
57 l8 28 11 -27 c14 -35 29 -42 41 -21 9 17 11 16 27 -6 12 -17 19 -20 24 -10
6 8 -12 35 -52 78 -33 36 -64 76 -70 87 -6 12 -21 27 -34 33 -13 6 -24 15 -24
21 0 19 31 10 56 -17 44 -50 78 -82 82 -79 5 5 -45 83 -55 87 -5 2 -21 20 -36
41 -22 28 -39 39 -80 48 -29 7 -59 19 -68 26 -9 8 -19 11 -22 7 -16 -15 -5
-44 30 -78 20 -19 33 -38 30 -41 -10 -10 -57 23 -108 75 -70 70 -98 89 -86 56
4 -8 2 -17 -3 -20 -16 -10 -11 -23 10 -30 13 -4 23 -18 27 -36 6 -31 23 -40
23 -13 0 27 27 -2 40 -42 15 -44 10 -50 -23 -24 -30 24 -37 25 -37 4 0 -9 8
-18 19 -21 14 -4 50 -53 38 -53 -1 0 -24 8 -52 19 -44 17 -72 41 -47 41 6 0 9
18 7 43 -2 23 -4 47 -4 52 -1 6 -19 10 -41 10 l-40 0 6 -34 c11 -56 -18 -32
-36 30 -9 30 -22 55 -31 57 -8 1 -22 25 -32 52 -20 55 -42 65 -57 26z m37 -68
c-3 -8 -6 -5 -6 6 -1 11 2 17 5 13 3 -3 4 -12 1 -19z m240 -40 c-3 -8 -6 -5
-6 6 -1 11 2 17 5 13 3 -3 4 -12 1 -19z m-200 -54 c18 -14 33 -33 33 -42 0
-13 -2 -14 -9 -4 -4 7 -13 12 -19 10 -7 -2 -22 12 -33 30 -25 39 -17 41 28 6z
m341 -88 c43 -27 70 -56 53 -56 -6 0 -11 4 -11 9 0 9 -52 22 -59 15 -2 -2 4
-13 14 -24 32 -35 0 -21 -36 16 -22 23 -27 33 -15 28 16 -6 18 -4 14 14 -8 27
-6 27 40 -2z m-158 -107 c0 -5 -4 -9 -10 -9 -5 0 -10 7 -10 16 0 8 5 12 10 9
6 -3 10 -10 10 -16z m-35 -9 c10 -11 16 -22 14 -25 -7 -6 -49 24 -49 36 0 15
16 10 35 -11z m169 4 c3 -9 6 -23 6 -32 0 -13 -5 -11 -19 8 -19 23 -19 40 -1
40 4 0 11 -7 14 -16z m-20 -49 c28 -12 36 -21 36 -40 0 -28 -9 -31 -29 -12
-11 10 -12 8 -6 -10 4 -14 2 -23 -4 -23 -6 0 -11 8 -11 18 0 9 -7 26 -15 36
-14 18 -20 46 -11 46 2 0 20 -7 40 -15z m-75 -19 c15 -16 19 -26 11 -31 -13
-8 -50 22 -50 42 0 20 14 16 39 -11z m187 -63 c-4 -5 -19 5 -32 20 -35 40 -30
51 8 17 17 -16 28 -33 24 -37z m-526 -33 c0 -5 -4 -10 -10 -10 -5 0 -10 5 -10
10 0 6 5 10 10 10 6 0 10 -4 10 -10z m306 -57 c-4 -4 -11 -1 -16 7 -16 25 -11
35 7 17 9 -9 13 -20 9 -24z m12 -126 c5 -26 -23 -20 -38 8 -7 14 -17 25 -22
25 -4 0 -8 5 -8 11 0 17 64 -25 68 -44z"/>
<path d="M9495 6950 c-3 -5 -1 -10 4 -10 6 0 11 5 11 10 0 6 -2 10 -4 10 -3 0
-8 -4 -11 -10z"/>
<path d="M9585 6930 c16 -16 31 -28 33 -25 7 7 -39 55 -52 55 -5 0 3 -13 19
-30z"/>
<path d="M9927 6939 c7 -7 15 -10 18 -7 3 3 -2 9 -12 12 -14 6 -15 5 -6 -5z"/>
<path d="M9300 6933 c0 -14 19 -38 25 -32 8 8 -5 39 -16 39 -5 0 -9 -3 -9 -7z"/>
<path d="M9370 6910 c0 -5 5 -10 10 -10 6 0 10 5 10 10 0 6 -4 10 -10 10 -5 0
-10 -4 -10 -10z"/>
<path d="M9915 6880 c16 -16 39 -30 51 -30 12 0 28 -10 37 -22 8 -13 17 -21
20 -18 9 9 -37 54 -80 78 -55 30 -62 28 -28 -8z"/>
<path d="M9890 6865 c7 -9 15 -13 17 -11 7 7 -7 26 -19 26 -6 0 -6 -6 2 -15z"/>
<path d="M9940 6803 c0 -6 8 -21 19 -34 10 -13 28 -43 40 -66 12 -24 26 -43
31 -43 20 0 9 28 -36 86 -55 71 -54 70 -54 57z"/>
<path d="M9930 6734 c0 -9 -5 -12 -12 -8 -8 5 -9 2 -4 -12 19 -46 19 -55 0
-48 -11 4 -25 11 -31 17 -19 14 -16 -8 2 -23 8 -7 19 -26 24 -44 5 -17 12 -40
16 -51 4 -11 -7 -3 -25 18 -38 44 -48 42 -26 -5 8 -18 22 -51 31 -73 l16 -40
-31 30 c-24 23 -30 25 -30 11 0 -9 7 -31 16 -49 11 -20 13 -32 6 -35 -15 -5
-3 -32 14 -32 8 0 14 -4 14 -9 0 -5 19 -29 41 -52 l41 -43 -4 44 c-3 25 -8 54
-13 64 -6 14 -5 17 3 12 8 -5 12 0 12 13 0 11 4 22 9 25 5 4 7 35 4 71 -3 49
-1 65 8 63 29 -7 18 37 -27 102 -26 39 -49 70 -51 70 -2 0 -3 -7 -3 -16z"/>
<path d="M3525 6641 c-64 -35 -95 -88 -75 -126 10 -20 11 -28 2 -37 -17 -17
-15 -26 8 -33 17 -5 19 -12 14 -46 -6 -34 -4 -39 13 -39 12 0 28 15 42 41 13
22 28 38 35 36 7 -3 12 13 13 47 2 28 8 64 14 79 15 36 5 45 -30 24 -30 -18
-41 -14 -41 14 0 10 9 19 21 21 12 2 28 13 37 26 18 28 10 26 -53 -7z"/>
<path d="M8150 6393 c0 -12 5 -25 10 -28 13 -8 13 15 0 35 -8 12 -10 11 -10
-7z"/>
<path d="M8875 6385 c4 -16 11 -34 16 -39 15 -16 10 16 -7 44 l-15 25 6 -30z"/>
<path d="M3549 6343 c-6 -16 -11 -41 -10 -58 1 -16 2 -57 2 -90 0 -78 16 -55
24 35 3 36 8 82 10 103 6 44 -10 50 -26 10z"/>
<path d="M9890 6348 c0 -35 44 -120 75 -148 l29 -25 -21 30 c-28 42 -63 118
-63 138 0 9 -4 19 -10 22 -6 3 -10 -4 -10 -17z"/>
<path d="M8590 6325 c0 -16 27 -32 37 -21 7 7 -16 36 -28 36 -5 0 -9 -7 -9
-15z"/>
<path d="M8650 6333 c0 -5 7 -21 16 -38 10 -19 11 -31 5 -33 -13 -4 -15 -42
-2 -42 18 0 51 53 51 81 0 30 -15 47 -23 27 -4 -10 -7 -11 -18 0 -15 13 -29
16 -29 5z"/>
<path d="M8746 6315 c4 -8 8 -15 10 -15 2 0 4 7 4 15 0 8 -4 15 -10 15 -5 0
-7 -7 -4 -15z"/>
<path d="M9540 6321 c0 -5 9 -12 19 -16 10 -3 21 -15 24 -26 5 -18 8 -19 21
-8 14 12 12 17 -10 37 -26 23 -54 29 -54 13z"/>
<path d="M9430 6304 c0 -11 9 -29 20 -39 26 -23 26 -9 0 30 -17 26 -20 27 -20
9z"/>
<path d="M8840 6248 c0 -21 5 -38 10 -38 13 0 13 40 0 60 -7 11 -10 5 -10 -22z"/>
<path d="M8750 6223 c0 -27 16 -46 39 -48 29 -2 25 16 -10 43 -26 21 -29 22
-29 5z"/>
<path d="M8612 6205 c-14 -31 -28 -32 -35 -3 -4 12 -9 19 -13 16 -3 -4 2 -31
12 -60 9 -29 19 -47 22 -40 2 6 8 10 12 7 13 -8 -10 -65 -25 -65 -8 0 -16 4
-19 9 -4 5 -15 5 -29 -1 -19 -10 -22 -17 -19 -62 2 -28 -1 -69 -6 -91 -6 -28
-5 -51 4 -75 l12 -35 17 40 c21 50 22 50 39 36 11 -10 19 -7 36 11 16 16 24
19 27 10 6 -15 23 -6 23 14 0 8 -7 14 -16 14 -13 0 -15 7 -10 33 17 80 18 98
6 112 -9 11 -7 22 11 54 14 25 19 46 14 58 -6 16 -8 16 -18 -7 -11 -24 -11
-24 -15 13 -4 43 -14 47 -30 12z m6 -211 c2 -22 -1 -51 -6 -64 l-9 -24 -12 23
c-8 15 -11 39 -6 68 8 55 29 53 33 -3z"/>
<path d="M9500 6225 c0 -13 32 -66 36 -62 6 6 -23 67 -31 67 -3 0 -5 -2 -5 -5z"/>
<path d="M10096 6192 c-4 -10 -3 -30 2 -42 8 -22 9 -22 16 10 7 37 -8 65 -18
32z"/>
<path d="M9830 6170 c6 -11 13 -20 16 -20 2 0 0 9 -6 20 -6 11 -13 20 -16 20
-2 0 0 -9 6 -20z"/>
<path d="M8970 6152 c0 -11 7 -41 15 -68 8 -27 15 -51 15 -54 -1 -12 -40 47
-40 60 0 8 -5 22 -10 30 -9 13 -11 13 -19 1 -8 -12 -13 -11 -29 10 -11 13 -24
21 -28 16 -11 -11 52 -92 72 -92 14 0 19 -8 20 -33 2 -39 7 -45 37 -48 50 -5
58 4 52 54 -9 67 -14 79 -31 86 -13 5 -15 0 -10 -27 6 -30 5 -29 -14 11 -10
23 -17 49 -14 57 4 8 1 15 -5 15 -6 0 -11 -8 -11 -18z m70 -145 c0 -5 -4 -5
-10 -2 -5 3 -10 14 -10 23 0 15 2 15 10 2 5 -8 10 -19 10 -23z"/>
<path d="M9355 6150 c-8 -13 3 -30 20 -30 8 0 11 7 8 20 -6 22 -18 26 -28 10z"/>
<path d="M8795 6110 c-4 -11 -3 -35 1 -53 6 -29 5 -30 -11 -17 -9 8 -26 15
-37 17 -15 2 -12 -3 13 -24 18 -16 43 -28 56 -28 28 -1 28 -1 6 32 -17 26 -17
27 0 20 21 -8 22 5 2 43 -18 35 -22 36 -30 10z"/>
<path d="M9929 6105 c17 -33 51 -71 51 -58 0 7 -14 27 -31 45 -16 18 -26 24
-20 13z"/>
<path d="M8870 6068 c0 -30 13 -58 26 -58 17 0 18 11 2 45 -12 26 -28 34 -28
13z"/>
<path d="M9250 6068 c0 -9 7 -22 17 -29 15 -13 15 -12 3 11 -17 34 -20 36 -20
18z"/>
<path d="M9295 6050 c3 -19 13 -42 21 -50 15 -14 15 -13 9 10 -4 14 -14 36
-22 50 -14 25 -14 25 -8 -10z"/>
<path d="M4520 6058 c0 -12 16 -17 38 -11 32 8 27 20 -8 19 -16 -1 -30 -4 -30
-8z"/>
<path d="M4435 6049 c-4 -6 -5 -12 -2 -15 2 -3 7 2 10 11 7 17 1 20 -8 4z"/>
<path d="M4610 6050 c19 -13 30 -13 30 0 0 6 -10 10 -22 10 -19 0 -20 -2 -8
-10z"/>
<path d="M9920 6041 c0 -5 5 -13 10 -16 6 -3 10 -2 10 4 0 5 -4 13 -10 16 -5
3 -10 2 -10 -4z"/>
<path d="M9070 6012 c0 -15 28 -47 35 -40 8 8 -13 48 -25 48 -6 0 -10 -4 -10
-8z"/>
<path d="M9182 5989 c2 -7 12 -13 22 -15 23 -3 15 20 -8 24 -11 3 -17 -1 -14
-9z"/>
<path d="M9400 5980 c0 -8 5 -22 10 -30 9 -13 10 -13 10 0 0 8 -5 22 -10 30
-9 13 -10 13 -10 0z"/>
<path d="M8861 5884 c0 -11 3 -14 6 -6 3 7 2 16 -1 19 -3 4 -6 -2 -5 -13z"/>
<path d="M8938 5875 c2 -14 8 -25 13 -25 10 0 11 12 3 34 -10 25 -22 19 -16
-9z"/>
<path d="M9550 5880 c0 -14 7 -20 22 -20 20 0 21 1 3 20 -10 11 -20 20 -22 20
-1 0 -3 -9 -3 -20z"/>
<path d="M9792 5861 c2 -27 9 -46 17 -49 11 -4 12 3 7 34 -11 58 -28 68 -24
15z"/>
<path d="M8760 5881 c0 -6 5 -13 10 -16 6 -3 10 1 10 9 0 9 -4 16 -10 16 -5 0
-10 -4 -10 -9z"/>
<path d="M3355 5860 c-3 -5 -1 -10 4 -10 6 0 11 5 11 10 0 6 -2 10 -4 10 -3 0
-8 -4 -11 -10z"/>
<path d="M8460 5829 c-6 -11 -10 -25 -7 -32 2 -6 9 3 15 21 12 36 8 42 -8 11z"/>
<path d="M8340 5796 c0 -8 5 -18 10 -21 6 -3 7 -18 4 -33 -4 -21 -3 -24 5 -12
17 23 14 80 -4 80 -8 0 -15 -6 -15 -14z"/>
<path d="M8497 5767 c-11 -29 -9 -43 4 -30 6 6 9 19 7 29 -3 18 -4 18 -11 1z"/>
<path d="M9440 5751 c0 -6 4 -13 10 -16 6 -3 7 1 4 9 -7 18 -14 21 -14 7z"/>
<path d="M9457 5706 c-4 -10 -5 -21 -2 -24 9 -9 17 6 13 25 -3 17 -4 17 -11
-1z"/>
<path d="M5290 5670 c20 -13 43 -13 35 0 -3 6 -16 10 -28 10 -18 0 -19 -2 -7
-10z"/>
<path d="M8463 5655 c-3 -9 -3 -18 -1 -21 3 -3 8 4 11 16 6 23 -1 27 -10 5z"/>
<path d="M3516 5653 c-3 -3 -6 -29 -6 -57 1 -47 2 -49 15 -32 24 32 16 114 -9
89z"/>
<path d="M9480 5557 c0 -19 16 -31 24 -18 3 5 -1 14 -9 21 -12 10 -15 10 -15
-3z"/>
<path d="M4815 5480 c3 -5 8 -10 11 -10 2 0 4 5 4 10 0 6 -5 10 -11 10 -5 0
-7 -4 -4 -10z"/>
<path d="M5135 5350 c3 -5 8 -10 11 -10 2 0 4 5 4 10 0 6 -5 10 -11 10 -5 0
-7 -4 -4 -10z"/>
<path d="M8720 5283 c0 -7 -13 -19 -29 -27 -35 -19 -44 -39 -30 -70 8 -16 17
-22 30 -19 26 7 34 -19 16 -54 -8 -15 -18 -50 -22 -76 -4 -26 -11 -50 -16 -53
-13 -7 -11 -54 1 -54 6 0 13 7 16 15 11 28 27 16 20 -16 -7 -35 8 -61 30 -52
9 3 14 -2 14 -13 1 -18 1 -18 11 -1 16 28 32 20 26 -12 -7 -31 17 -51 37 -31
16 16 26 12 26 -10 0 -13 7 -20 20 -20 11 0 20 -6 20 -12 0 -10 2 -10 9 0 7
11 10 10 15 -3 3 -9 6 -28 6 -41 0 -30 16 -31 39 -2 23 27 48 18 54 -19 4 -27
4 -28 12 -5 6 18 10 20 16 10 6 -9 9 -3 9 18 0 17 5 45 11 62 9 27 14 30 29
22 25 -14 53 -2 45 19 -4 9 -9 33 -12 54 -3 20 -9 37 -13 37 -4 0 -10 24 -12
53 -3 28 -17 78 -32 111 -24 53 -28 57 -40 40 -13 -17 -14 -17 -20 4 -12 37
-59 50 -98 26 -6 -4 -17 1 -24 10 -9 12 -14 14 -19 5 -5 -7 -13 1 -23 22 -11
26 -16 30 -19 17 -6 -25 -19 -22 -27 5 -6 22 -7 22 -21 3 -15 -20 -15 -20 -15
0 0 21 -39 77 -40 57z m175 -403 c3 -5 1 -10 -4 -10 -6 0 -11 5 -11 10 0 6 2
10 4 10 3 0 8 -4 11 -10z m145 -50 c0 -11 -4 -20 -10 -20 -5 0 -10 9 -10 20 0
11 5 20 10 20 6 0 10 -9 10 -20z"/>
<path d="M9542 5279 c2 -7 10 -15 17 -17 8 -3 12 1 9 9 -2 7 -10 15 -17 17 -8
3 -12 -1 -9 -9z"/>
<path d="M8615 5260 c-3 -5 -1 -10 4 -10 6 0 11 5 11 10 0 6 -2 10 -4 10 -3 0
-8 -4 -11 -10z"/>
<path d="M8681 5137 c-7 -9 -11 -24 -9 -34 3 -16 5 -15 17 5 15 29 10 50 -8
29z"/>
<path d="M8650 5010 c0 -5 5 -10 10 -10 6 0 10 5 10 10 0 6 -4 10 -10 10 -5 0
-10 -4 -10 -10z"/>
<path d="M5730 4870 c0 -6 7 -10 15 -10 8 0 15 2 15 4 0 2 -7 6 -15 10 -8 3
-15 1 -15 -4z"/>
<path d="M5150 4848 c0 -9 -8 -18 -17 -20 -16 -3 -15 -6 5 -16 14 -8 28 -10
38 -4 13 7 13 11 -5 33 -16 19 -20 21 -21 7z"/>
<path d="M3930 4820 c-9 -6 -10 -10 -3 -10 6 0 15 5 18 10 8 12 4 12 -15 0z"/>
<path d="M5280 4800 c0 -5 5 -10 11 -10 5 0 7 5 4 10 -3 6 -8 10 -11 10 -2 0
-4 -4 -4 -10z"/>
<path d="M5093 4652 c22 -24 22 -39 1 -18 -18 18 -34 21 -34 6 0 -21 33 -60
50 -60 10 0 22 -9 25 -20 3 -11 11 -20 16 -20 6 0 5 9 -2 21 -9 19 -8 20 10
14 19 -6 19 -5 5 24 -14 28 -62 71 -80 71 -4 0 0 -8 9 -18z"/>
<path d="M8820 4610 c0 -5 7 -10 16 -10 8 0 12 5 9 10 -3 6 -10 10 -16 10 -5
0 -9 -4 -9 -10z"/>
<path d="M5020 4553 c0 -11 80 -93 92 -93 5 0 2 10 -6 22 -9 12 -16 30 -16 39
0 9 -8 19 -17 22 -10 2 -26 8 -35 12 -10 4 -18 3 -18 -2z"/>
<path d="M5330 4491 c0 -7 -4 -9 -10 -6 -5 3 -10 2 -10 -4 0 -16 21 -24 33
-12 8 8 8 14 -1 23 -9 9 -12 9 -12 -1z"/>
<path d="M8330 4436 c0 -9 5 -16 10 -16 6 0 10 4 10 9 0 6 -4 13 -10 16 -5 3
-10 -1 -10 -9z"/>
<path d="M7100 4376 c0 -2 8 -10 18 -17 15 -13 16 -12 3 4 -13 16 -21 21 -21
13z"/>
<path d="M5190 4360 c0 -5 5 -10 10 -10 6 0 10 5 10 10 0 6 -4 10 -10 10 -5 0
-10 -4 -10 -10z"/>
<path d="M5295 4340 c3 -5 8 -10 11 -10 2 0 4 5 4 10 0 6 -5 10 -11 10 -5 0
-7 -4 -4 -10z"/>
<path d="M5600 4335 c7 -9 15 -13 17 -11 7 7 -7 26 -19 26 -6 0 -6 -6 2 -15z"/>
<path d="M7081 4293 c7 -12 15 -20 18 -17 3 2 -3 12 -13 22 -17 16 -18 16 -5
-5z"/>
<path d="M6520 4260 c0 -5 7 -10 16 -10 8 0 12 5 9 10 -3 6 -10 10 -16 10 -5
0 -9 -4 -9 -10z"/>
<path d="M6515 4220 c3 -5 13 -10 21 -10 8 0 12 5 9 10 -3 6 -13 10 -21 10 -8
0 -12 -4 -9 -10z"/>
<path d="M5550 4211 c0 -5 7 -14 15 -21 12 -10 15 -10 15 3 0 8 -7 17 -15 21
-8 3 -15 2 -15 -3z"/>
<path d="M5549 4123 c12 -18 24 -33 27 -33 9 0 -15 37 -33 51 -12 10 -11 5 6
-18z"/>
<path d="M7590 4144 c0 -18 56 -64 77 -64 50 0 10 58 -46 66 -17 3 -31 2 -31
-2z"/>
<path d="M5601 4108 c-1 -11 6 -16 19 -15 11 1 20 5 20 10 0 5 -6 7 -14 4 -8
-3 -17 -1 -20 6 -2 7 -5 5 -5 -5z"/>
<path d="M6324 4079 c-16 -17 -16 -22 -4 -29 22 -14 46 -12 60 5 11 13 10 18
-6 30 -25 19 -28 19 -50 -6z"/>
<path d="M5750 4061 c0 -10 58 -36 65 -29 3 2 -11 12 -30 21 -19 9 -35 13 -35
8z"/>
<path d="M7586 4020 c14 -14 74 -24 74 -12 0 10 -33 22 -64 22 -13 0 -17 -3
-10 -10z"/>
<path d="M7575 3980 c3 -5 8 -10 11 -10 2 0 4 5 4 10 0 6 -5 10 -11 10 -5 0
-7 -4 -4 -10z"/>
<path d="M7583 3894 c16 -9 32 -13 35 -9 9 9 -19 25 -43 24 -16 0 -15 -2 8
-15z"/>
<path d="M7560 3835 c7 -9 15 -13 17 -11 7 7 -7 26 -19 26 -6 0 -6 -6 2 -15z"/>
<path d="M7512 3819 c-11 -17 -11 -24 0 -41 12 -18 87 -52 96 -43 9 8 -25 59
-53 81 l-31 23 -12 -20z"/>
<path d="M7126 3781 c-4 -7 -5 -15 -2 -18 9 -9 19 4 14 18 -4 11 -6 11 -12 0z"/>
<path d="M3795 3735 c-28 -27 -33 -55 -11 -55 13 0 56 57 56 74 0 14 -22 5
-45 -19z"/>
<path d="M7090 3713 c-23 -30 -23 -68 0 -68 9 0 16 11 18 28 2 15 9 27 18 27
16 0 16 2 8 24 -9 23 -19 20 -44 -11z"/>
<path d="M7497 3719 c7 -7 15 -10 18 -7 3 3 -2 9 -12 12 -14 6 -15 5 -6 -5z"/>
<path d="M7052 3614 c1 -9 9 -19 16 -22 9 -3 13 2 10 14 -1 9 -9 19 -16 22 -9
3 -13 -2 -10 -14z"/>
<path d="M8262 3239 c-37 -40 -82 -86 -99 -102 -18 -17 -33 -36 -33 -43 0 -6
-13 -20 -29 -31 -16 -10 -49 -44 -74 -76 -25 -32 -66 -74 -91 -94 -25 -20 -46
-42 -46 -50 0 -7 -20 -28 -45 -45 -36 -26 -42 -34 -33 -46 10 -11 8 -17 -7
-28 -10 -8 -24 -14 -30 -14 -18 0 -45 -34 -45 -56 0 -11 -6 -26 -12 -33 -10
-11 -10 -14 0 -18 17 -6 15 -28 -4 -44 -9 -7 -13 -21 -10 -34 6 -23 -17 -79
-41 -103 -19 -19 -16 -31 11 -43 30 -14 76 8 108 52 17 23 28 29 45 24 17 -4
28 2 45 25 35 49 72 36 61 -21 -3 -15 1 -30 11 -38 19 -16 32 -8 40 25 4 14
16 35 27 47 11 12 31 46 46 77 14 30 37 78 51 105 65 123 67 129 68 201 2 93
16 132 73 207 60 80 144 207 140 211 -2 2 -17 6 -32 10 -25 6 -35 -1 -95 -65z"/>
<path d="M7040 3212 c6 -13 14 -21 18 -18 3 4 -2 14 -12 24 -18 16 -18 16 -6
-6z"/>
<path d="M6969 3206 c16 -19 44 -21 39 -3 -3 6 -15 14 -28 15 -21 3 -22 2 -11
-12z"/>
<path d="M3891 3169 c-19 -7 -22 -12 -13 -21 9 -9 17 -7 34 10 24 23 18 27
-21 11z"/>
<path d="M6910 3160 c0 -6 7 -10 15 -10 8 0 15 2 15 4 0 2 -7 6 -15 10 -8 3
-15 1 -15 -4z"/>
<path d="M7005 3150 c3 -5 8 -10 11 -10 2 0 4 5 4 10 0 6 -5 10 -11 10 -5 0
-7 -4 -4 -10z"/>
<path d="M5453 2784 c-4 -11 -14 -14 -34 -10 -23 4 -29 2 -29 -11 0 -13 -5
-12 -25 7 -20 19 -25 20 -25 7 0 -10 -5 -14 -15 -11 -10 4 -15 0 -15 -15 0
-24 -10 -27 -28 -9 -9 9 -12 7 -12 -9 0 -50 68 -82 117 -55 16 9 31 8 70 -3
26 -8 51 -15 54 -15 9 0 19 79 12 96 -3 8 -11 14 -19 14 -8 0 -14 4 -14 9 0
17 -31 21 -37 5z"/>
<path d="M4551 2728 c-1 -20 4 -40 9 -43 12 -7 12 19 0 55 -7 22 -8 21 -9 -12z"/>
<path d="M4275 2720 c-3 -5 1 -10 9 -10 9 0 16 5 16 10 0 6 -4 10 -9 10 -6 0
-13 -4 -16 -10z"/>
<path d="M8565 2700 c-3 -5 -1 -10 4 -10 6 0 11 5 11 10 0 6 -2 10 -4 10 -3 0
-8 -4 -11 -10z"/>
<path d="M5675 2667 c-9 -33 11 -103 29 -104 6 0 19 -4 29 -8 27 -11 21 22
-10 64 -16 19 -31 45 -34 56 -5 18 -7 17 -14 -8z"/>
<path d="M5802 2664 c10 -10 23 -14 34 -10 16 6 16 8 4 16 -8 6 -24 10 -35 10
-18 0 -18 -1 -3 -16z"/>
<path d="M4466 2634 c-3 -9 -6 -25 -6 -37 0 -27 16 -11 25 26 8 29 -8 39 -19
11z"/>
<path d="M5600 2631 c0 -22 35 -69 45 -59 8 8 -24 78 -36 78 -5 0 -9 -9 -9
-19z"/>
<path d="M4610 2621 c0 -11 5 -23 10 -26 6 -4 10 5 10 19 0 14 -4 26 -10 26
-5 0 -10 -9 -10 -19z"/>
<path d="M4591 2604 c0 -11 3 -14 6 -6 3 7 2 16 -1 19 -3 4 -6 -2 -5 -13z"/>
<path d="M5560 2580 c0 -5 4 -10 9 -10 6 0 13 5 16 10 3 6 -1 10 -9 10 -9 0
-16 -4 -16 -10z"/>
<path d="M4709 2428 c-15 -29 -11 -41 46 -116 57 -76 68 -97 36 -68 -25 23
-32 9 -17 -33 8 -26 19 -37 41 -43 37 -10 56 -3 49 17 -5 11 -2 14 9 9 12 -4
19 5 28 36 11 38 10 49 -11 111 -31 91 -51 110 -119 107 -38 -2 -55 -7 -62
-20z"/>
<path d="M10666 1834 c-8 -25 -29 -61 -46 -80 -16 -19 -30 -45 -30 -58 0 -13
-14 -50 -30 -81 -37 -70 -43 -118 -17 -123 23 -5 47 15 47 39 0 10 7 22 15 27
9 4 22 34 29 65 14 59 30 87 51 87 7 0 17 26 24 63 7 34 15 72 18 85 4 18 1
22 -20 22 -21 0 -28 -8 -41 -46z"/>
<path d="M11763 1493 c-32 -6 -29 -19 6 -26 16 -4 30 -14 33 -25 8 -29 119
-81 118 -54 -1 15 -29 42 -79 76 -29 20 -54 35 -55 35 0 -1 -11 -4 -23 -6z"/>
<path d="M10438 1346 c-6 -15 -8 -29 -5 -32 9 -9 37 15 37 32 0 25 -20 25 -32
0z"/>
<path d="M8086 1231 c-25 -26 -26 -31 -14 -50 11 -18 19 -21 48 -16 37 6 81
33 88 53 3 11 -57 42 -82 42 -7 0 -25 -13 -40 -29z"/>
<path d="M8107 1140 c-9 -11 -23 -20 -31 -20 -7 0 -19 -7 -26 -15 -10 -12 -8
-16 15 -25 34 -13 71 -13 96 1 17 8 18 13 8 25 -9 11 -9 18 -1 26 19 19 14 28
-16 28 -15 0 -35 -9 -45 -20z"/>
<path d="M11830 1060 c0 -5 9 -14 20 -20 24 -13 26 -35 5 -44 -19 -7 -20 -36
0 -36 8 0 19 9 25 20 6 12 22 25 36 30 27 11 24 30 -4 30 -9 0 -30 7 -46 15
-33 18 -36 18 -36 5z"/>
<path d="M11967 1023 c-10 -3 -16 -10 -14 -16 6 -19 41 -14 45 6 4 17 1 18
-31 10z"/>
<path d="M7830 921 c-14 -4 -24 -14 -23 -22 2 -10 -12 -19 -42 -27 -33 -9 -50
-21 -65 -45 -11 -17 -20 -38 -20 -46 0 -18 -55 -67 -102 -92 -20 -10 -39 -23
-43 -29 -8 -13 13 -50 29 -50 8 0 24 -9 37 -21 l24 -21 -25 7 c-48 14 -96 16
-163 8 -76 -9 -87 -23 -30 -38 21 -6 65 -24 98 -41 172 -88 190 -105 199 -185
7 -56 6 -60 -21 -83 -25 -22 -26 -26 -14 -49 9 -18 12 -41 8 -72 -5 -31 -2
-58 8 -81 l14 -34 95 0 95 0 26 53 c14 30 25 69 25 88 0 45 23 126 46 166 18
30 18 36 2 151 -9 66 -31 171 -49 232 -29 101 -30 113 -16 127 14 14 13 18
-13 39 -15 13 -35 24 -44 24 -29 0 -17 17 17 25 28 6 30 8 12 15 -24 10 -32
10 -65 1z"/>
<path d="M11994 875 l7 -35 -46 6 c-51 8 -57 -2 -20 -36 29 -28 33 -60 7 -60
-18 0 -42 -18 -42 -31 0 -4 20 -19 45 -33 25 -15 45 -31 45 -36 0 -6 8 -10 19
-10 10 0 21 -9 24 -21 4 -15 12 -20 29 -17 33 4 34 38 1 74 -19 21 -26 38 -25
62 2 17 3 47 3 65 -1 17 -1 49 -1 70 0 33 -2 37 -26 37 -25 0 -26 -2 -20 -35z"/>
<path d="M5588 578 c-14 -11 -98 -152 -98 -164 0 -2 18 -4 40 -4 42 0 80 26
80 55 0 8 3 14 8 14 36 -6 52 3 52 29 0 35 -32 57 -60 42 -15 -8 -20 -8 -20 3
0 7 5 18 12 25 16 16 6 15 -14 0z"/>
<path d="M11920 559 c0 -11 46 -23 59 -14 20 12 11 20 -24 22 -19 1 -35 -3
-35 -8z"/>
<path d="M11800 526 c0 -2 7 -7 16 -10 8 -3 12 -2 9 4 -6 10 -25 14 -25 6z"/>
<path d="M5662 420 c-12 -19 -22 -38 -22 -42 0 -5 -6 -8 -14 -8 -7 0 -25 -9
-39 -20 -13 -11 -48 -31 -76 -45 -28 -15 -51 -31 -51 -37 0 -24 47 -91 73
-105 26 -13 27 -16 14 -36 -15 -23 -28 -67 -21 -67 23 0 214 184 214 206 0 6
18 28 40 49 42 41 46 50 31 74 -8 13 -12 13 -26 1 -15 -12 -19 -12 -31 5 -8
10 -14 24 -15 29 0 6 -4 1 -9 -11 -13 -32 -28 -28 -38 10 l-9 32 -21 -35z m45
-105 c-29 -26 -47 -32 -47 -16 0 13 41 41 60 41 10 -1 6 -9 -13 -25z"/>
<path d="M11810 240 c0 -5 9 -14 20 -20 25 -13 26 -36 3 -49 -15 -8 -16 -12
-5 -23 11 -11 18 -8 37 16 19 24 28 28 51 22 49 -11 57 -11 60 -1 4 11 -62 35
-94 35 -10 0 -27 7 -38 15 -22 17 -34 19 -34 5z"/>
<path d="M5735 174 c-22 -19 -59 -43 -81 -53 -48 -22 -124 -87 -124 -106 0
-10 22 -14 89 -14 84 0 90 1 106 25 9 14 14 33 10 43 -3 11 3 25 16 37 40 36
64 104 37 104 -7 -1 -31 -16 -53 -36z"/>
<path d="M11981 91 c-12 -8 -13 -14 -3 -36 17 -37 17 -36 -39 -29 -42 6 -51 4
-47 -7 3 -9 24 -15 64 -17 l59 -3 3 51 c3 51 -6 61 -37 41z"/>
<path d="M6830 73 c-24 -9 -60 -45 -54 -54 9 -16 30 -10 58 16 37 34 35 52 -4
38z"/>
</g>
</svg>
